<svg width="745" height="485" viewBox="0 0 745 485" fill="none" xmlns="http://www.w3.org/2000/svg">
<g clip-path="url(#clip0_119_3)">
<path d="M146.279 309.044L142.161 306.485C141.768 306.243 141.382 305.981 140.989 305.733C149.757 304.229 157.751 299.788 163.659 293.141C169.567 286.493 173.036 278.035 173.497 269.155C173.958 260.276 171.382 251.504 166.195 244.281C161.007 237.059 153.515 231.815 144.95 229.412L145.153 245.556L136.282 227.999H136.157C131.017 227.759 125.879 228.533 121.038 230.278C116.197 232.022 111.747 234.703 107.942 238.167C104.138 241.63 101.053 245.809 98.8643 250.464C96.6757 255.12 95.4259 260.16 95.1865 265.299C95.1472 266.045 95.1865 266.784 95.1865 267.523C92.1029 264.003 89.2942 260.227 87.4414 256.091C83.69 247.722 83.618 238.233 83.9126 226.71C84.5018 203.865 85.4904 180.851 86.7736 157.908C96.0373 156.877 104.63 152.58 111.009 145.787C117.388 138.994 121.135 130.15 121.577 120.844C121.63 119.647 121.61 118.462 121.577 117.291C121.577 116.997 121.577 116.702 121.532 116.414C121.453 115.276 121.348 114.15 121.171 113.038C121.171 112.854 121.106 112.678 121.073 112.501C120.916 111.559 120.72 110.629 120.497 109.707C120.412 109.366 120.327 109.052 120.235 108.679C119.96 107.685 119.659 106.716 119.306 105.728C119.188 105.407 119.05 105.074 118.926 104.773C118.651 104.059 118.35 103.353 118.029 102.659C117.859 102.293 117.695 101.926 117.518 101.566C117.466 101.475 117.433 101.377 117.381 101.285C113.244 93.1144 106.371 86.6528 97.9586 83.0251C89.5464 79.3974 80.1278 78.8333 71.3424 81.431L71.6043 102.437L62.8313 85.0825C55.6174 89.2134 49.9129 95.5405 46.5504 103.14C43.1879 110.74 42.3432 119.216 44.1397 127.329H44.1004C44.1593 127.611 44.2445 127.872 44.3099 128.154C44.4343 128.671 44.5653 129.181 44.7093 129.691C44.8926 130.346 45.1021 131 45.3182 131.655C45.4818 132.132 45.639 132.617 45.8223 133.094C46.0907 133.788 46.3919 134.462 46.693 135.136C46.8698 135.529 47.0269 135.934 47.2168 136.32C47.7144 137.337 48.2556 138.325 48.8404 139.285C49.0434 139.625 49.2725 139.939 49.4951 140.273C49.9141 140.927 50.3331 141.582 50.8045 142.19C51.086 142.576 51.3872 142.943 51.6818 143.322C52.1139 143.865 52.5526 144.402 52.9912 144.919C53.312 145.292 53.6459 145.645 53.9798 146.005C54.4643 146.509 54.9553 147 55.466 147.484C55.7999 147.805 56.1207 148.138 56.4939 148.439C57.07 148.95 57.6723 149.441 58.2812 149.918C58.5889 150.154 58.89 150.409 59.2043 150.645C60.134 151.299 61.0898 151.953 62.0784 152.608C62.2617 152.726 62.4647 152.817 62.648 152.929C63.4795 153.413 64.3175 153.871 65.1817 154.296C65.5549 154.479 65.9346 154.636 66.3143 154.807C67.0214 155.127 67.735 155.461 68.4683 155.71C68.8938 155.873 69.3259 156.024 69.7777 156.174C70.4978 156.416 71.2311 156.639 71.9709 156.829C72.403 156.946 72.8417 157.071 73.2803 157.175C74.079 157.365 74.8974 157.522 75.7223 157.666L75.8794 157.699C75.3426 167.375 74.8625 177.058 74.4391 186.747C72.1055 181.95 68.8155 177.68 64.771 174.2C60.7265 170.719 56.0129 168.102 50.9197 166.509C45.8266 164.915 40.4613 164.38 35.1534 164.934C29.8454 165.488 24.7069 167.122 20.0534 169.733L26.9801 188.71L12.7142 174.968C5.07476 181.95 0.520643 191.678 0.0523738 202.014C-0.130136 205.639 0.204942 209.273 1.04751 212.804C2.83881 220.445 6.88557 227.371 12.663 232.685C18.4404 237.999 25.6819 241.455 33.4483 242.605C41.2148 243.756 49.1479 242.547 56.2188 239.136C63.2898 235.726 69.1723 230.27 73.1035 223.477C73.1035 224.459 73.0381 225.44 73.0119 226.428C72.75 236.597 72.4226 249.253 77.4965 260.554C80.9337 268.211 86.4594 274.427 91.8999 280.002C95.4549 283.634 99.1409 287.142 102.918 290.538C106.634 295.532 111.486 299.57 117.073 302.317C123.28 307.1 129.709 311.596 136.354 315.745L140.505 318.323C144.236 320.633 148.06 323.008 151.805 325.475C151.15 325.41 150.495 325.338 149.841 325.305C141.532 324.918 133.315 327.182 126.379 331.77C119.442 336.358 114.145 343.031 111.253 350.826L135.738 370.739L108.804 364.496C108.813 371.119 110.5 377.633 113.71 383.428C116.919 389.222 121.546 394.11 127.157 397.633C132.768 401.156 139.182 403.2 145.798 403.575C152.414 403.949 159.017 402.641 164.99 399.774C164.388 400.533 163.781 401.287 163.17 402.038C161.966 403.534 160.776 405.022 159.602 406.501C143.667 426.669 139.235 445.822 147.124 460.422L156.722 455.239C149.042 441.032 160.591 422.84 168.159 413.26C169.311 411.799 170.481 410.337 171.668 408.876C181.862 396.201 193.398 381.883 193.116 364.293C192.691 337.797 166.928 321.857 146.279 309.044Z" fill="#E0FBFC"/>
<path d="M525.355 229.21L529.474 226.651C529.866 226.409 530.253 226.147 530.645 225.898C521.879 224.39 513.888 219.945 507.984 213.296C502.079 206.646 498.614 198.187 498.157 189.308C497.7 180.429 500.279 171.659 505.469 164.439C510.659 157.218 518.152 151.978 526.717 149.578L526.514 165.722L535.385 148.165H535.497C540.637 147.924 545.775 148.699 550.616 150.443C555.457 152.188 559.907 154.869 563.712 158.332C567.517 161.796 570.601 165.975 572.79 170.63C574.979 175.285 576.228 180.326 576.468 185.464C576.507 186.21 576.468 186.95 576.468 187.689C579.551 184.169 582.36 180.393 584.213 176.257C587.964 167.888 588.036 158.399 587.742 146.876C587.152 124.031 586.164 101.017 584.881 78.074C575.617 77.0432 567.024 72.7454 560.645 65.9523C554.267 59.1592 550.52 50.3159 550.077 41.01C550.024 39.8125 550.044 38.628 550.077 37.4567C550.077 37.1622 550.077 36.8678 550.123 36.5798C550.201 35.4412 550.306 34.3157 550.483 33.2032C550.483 33.02 550.548 32.8433 550.581 32.6666C550.738 31.7243 550.935 30.7951 551.157 29.8724C551.242 29.5322 551.327 29.2181 551.419 28.8451C551.694 27.8504 551.995 26.8819 552.349 25.8938C552.467 25.5732 552.604 25.2394 552.728 24.9384C553.003 24.2251 553.305 23.5184 553.625 22.8248C553.796 22.4583 553.959 22.0919 554.143 21.732C554.188 21.6403 554.221 21.5422 554.273 21.4506C558.409 13.2845 565.277 6.82544 573.683 3.19687C582.09 -0.431693 591.503 -1.00023 600.286 1.59015L600.024 22.5957L608.797 5.24159C616.013 9.37193 621.72 15.6997 625.084 23.3011C628.447 30.9025 629.292 39.3796 627.495 47.4949H627.534C627.475 47.7763 627.39 48.038 627.325 48.3194C627.2 48.8364 627.069 49.3468 626.925 49.8572C626.742 50.5116 626.532 51.166 626.316 51.8203C626.153 52.298 625.996 52.7823 625.812 53.26C625.544 53.9536 625.243 54.6276 624.942 55.3016C624.765 55.6943 624.608 56.1 624.418 56.4861C623.92 57.5025 623.379 58.4906 622.794 59.4504C622.591 59.7907 622.362 60.1048 622.139 60.4385C621.72 61.0929 621.301 61.7473 620.83 62.3559C620.549 62.7419 620.247 63.1084 619.953 63.4879C619.521 64.0311 619.082 64.5677 618.643 65.0846C618.323 65.4576 617.989 65.811 617.655 66.1709C617.177 66.6748 616.679 67.1655 616.169 67.6498C615.835 67.9704 615.514 68.3042 615.141 68.6052C614.565 69.1156 613.962 69.6064 613.353 70.0841C613.046 70.3196 612.744 70.5749 612.43 70.8104C611.501 71.4648 610.545 72.1192 609.556 72.7409C609.373 72.8586 609.17 72.9503 608.987 73.0615C608.155 73.5457 607.317 74.0038 606.453 74.4292C606.08 74.6124 605.7 74.7694 605.32 74.9396C604.613 75.2602 603.9 75.594 603.166 75.8426C602.741 76.0062 602.309 76.1567 601.857 76.3072C601.137 76.5493 600.403 76.7718 599.664 76.9616C599.232 77.0794 598.793 77.2037 598.354 77.3084C597.556 77.4982 596.737 77.6552 595.912 77.7992H595.755C596.292 87.4797 596.772 97.1623 597.195 106.847C599.529 102.05 602.819 97.78 606.864 94.2998C610.908 90.8195 615.622 88.2024 620.715 86.6091C625.808 85.0157 631.173 84.4798 636.481 85.0343C641.789 85.5887 646.928 87.2218 651.581 89.8332L644.654 108.81L658.907 95.1337C666.547 102.116 671.101 111.843 671.569 122.179C671.752 125.805 671.417 129.439 670.574 132.97C668.783 140.61 664.736 147.537 658.959 152.851C653.181 158.164 645.94 161.621 638.173 162.771C630.407 163.921 622.474 162.713 615.403 159.302C608.332 155.891 602.449 150.436 598.518 143.643C598.518 144.624 598.59 145.606 598.61 146.594C598.871 156.763 599.199 169.419 594.125 180.72C590.688 188.376 585.162 194.593 579.722 200.168C576.167 203.8 572.481 207.307 568.703 210.704C564.987 215.698 560.135 219.735 554.548 222.483C548.342 227.266 541.913 231.762 535.268 235.91L531.117 238.489C527.385 240.799 523.562 243.174 519.817 245.641C520.471 245.576 521.126 245.504 521.781 245.471C530.089 245.084 538.306 247.348 545.243 251.936C552.179 256.523 557.476 263.197 560.369 270.992L535.883 290.904L562.817 284.662C562.809 291.285 561.121 297.798 557.912 303.593C554.702 309.388 550.076 314.275 544.464 317.799C538.853 321.322 532.44 323.366 525.824 323.74C519.208 324.115 512.605 322.807 506.631 319.939C507.233 320.698 507.84 321.453 508.451 322.203C509.656 323.7 510.845 325.187 512.019 326.666C527.955 346.834 532.387 365.988 524.498 380.587L514.9 375.405C522.58 361.198 511.031 343.006 503.462 333.426C502.31 331.965 501.14 330.503 499.953 329.042C489.773 316.399 478.237 302.068 478.518 284.492C478.944 257.963 504.68 242.022 525.355 229.21Z" fill="#E0FBFC"/>
<path d="M420.807 485C599.854 485 745 475.332 745 463.405C745 451.479 599.854 441.811 420.807 441.811C241.76 441.811 96.6137 451.479 96.6137 463.405C96.6137 475.332 241.76 485 420.807 485Z" fill="#F2F2F2"/>
<path d="M431.694 464.06L315.034 462.568L315.374 459.577L321.018 410.244H423.471L431.007 459.577L431.583 463.314L431.694 464.06Z" fill="#2F2E41"/>
<path opacity="0.1" d="M431.583 463.314H373.361L315.034 462.568L315.374 459.577H431.007L431.583 463.314Z" fill="black"/>
<path d="M450.393 460.323H295.589V464.06H450.393V460.323Z" fill="#3F3D56"/>
<path d="M598.092 113.934C598.098 112.656 597.853 111.39 597.369 110.207C596.885 109.024 596.173 107.948 595.273 107.04C594.374 106.132 593.304 105.41 592.125 104.916C590.946 104.421 589.681 104.164 588.403 104.158H156.093C154.815 104.164 153.55 104.421 152.371 104.916C151.192 105.41 150.122 106.132 149.222 107.04C148.323 107.948 147.611 109.024 147.127 110.207C146.643 111.39 146.397 112.656 146.403 113.934V375.856H598.092V113.934Z" fill="#3F3D56"/>
<path d="M146.403 373.245V403.922C146.403 406.491 147.424 408.954 149.241 410.771C151.059 412.587 153.523 413.607 156.093 413.607H588.403C590.973 413.607 593.437 412.587 595.254 410.771C597.072 408.954 598.092 406.491 598.092 403.922V373.245H146.403Z" fill="#3F3D56"/>
<path d="M581.633 120.602H165.095V356.055H581.633V120.602Z" fill="#2F2E41"/>
<path d="M374.467 401.966C375.997 401.968 377.507 401.621 378.883 400.954C380.258 400.286 381.464 399.314 382.409 398.112C382.697 397.744 382.96 397.357 383.195 396.953L377.656 396.044L383.646 396.09C384.22 394.84 384.533 393.486 384.566 392.111C384.6 390.737 384.354 389.37 383.843 388.093L375.803 392.261L383.214 386.817C382.518 385.621 381.584 384.581 380.468 383.762C379.353 382.942 378.082 382.361 376.732 382.053C375.383 381.745 373.984 381.719 372.624 381.974C371.264 382.23 369.97 382.762 368.825 383.538C367.679 384.314 366.705 385.317 365.963 386.485C365.222 387.654 364.729 388.962 364.514 390.328C364.3 391.695 364.369 393.091 364.717 394.43C365.066 395.769 365.686 397.022 366.539 398.112C367.482 399.312 368.686 400.283 370.059 400.951C371.433 401.619 372.94 401.966 374.467 401.966Z" fill="#6C63FF"/>
<path opacity="0.1" d="M384.582 413.607L431.125 460.323L423.982 413.607H384.582Z" fill="black"/>
<path d="M509.584 445.489L522.121 438.16C520.423 435.269 518.257 432.68 515.712 430.497L492.071 437.845L510.592 426.957C506.006 424.445 500.844 423.171 495.615 423.259C490.386 423.347 485.271 424.795 480.772 427.459C476.272 430.124 472.545 433.914 469.956 438.455C467.367 442.997 466.006 448.134 466.007 453.361C466.007 469.989 479.494 470.564 496.123 470.564C512.753 470.564 526.239 469.989 526.239 453.361C526.244 449.155 525.365 444.995 523.66 441.15L509.584 445.489Z" fill="#57B894"/>
<path opacity="0.1" d="M512.779 461.652C511.441 460.316 509.949 459.145 508.333 458.164C506.062 456.652 503.705 455.115 501.02 454.598C498.67 454.146 496.235 454.526 493.819 454.395C489.65 454.139 485.726 452.341 482.813 449.349C481.098 447.583 479.756 445.423 477.693 444.056C475.474 442.603 472.659 442.289 470.034 442.649C469.268 442.763 468.51 442.92 467.762 443.12C466.58 446.393 465.977 449.848 465.981 453.328C465.981 469.956 479.468 470.532 496.097 470.532C504.17 470.532 511.502 470.394 516.91 468.353L516.006 466.664C515.147 464.864 514.062 463.18 512.779 461.652Z" fill="black"/>
<path opacity="0.3" d="M197.444 211.437H183.597V215.638H197.444V211.437Z" fill="#6C63FF"/>
<path opacity="0.3" d="M566.922 211.561H553.076V215.762H566.922V211.561Z" fill="#6C63FF"/>
<path opacity="0.3" d="M197.568 240.969H183.721V245.17H197.568V240.969Z" fill="#6C63FF"/>
<path opacity="0.3" d="M197.692 270.501H183.846V274.702H197.692V270.501Z" fill="#6C63FF"/>
<path opacity="0.3" d="M197.817 300.027H183.97V304.228H197.817V300.027Z" fill="#6C63FF"/>
<g opacity="0.2">
<path opacity="0.2" d="M201.372 213.459H197.444V213.622H201.372V213.459Z" fill="#F2F2F2"/>
<path opacity="0.2" d="M541.18 213.622H533.461V213.459H541.18V213.622ZM525.735 213.622H518.016V213.459H525.735V213.622ZM510.291 213.622H502.565V213.459H510.291V213.622ZM494.847 213.622H487.121V213.459H494.847V213.622ZM479.402 213.622H471.677V213.459H479.402V213.622ZM463.951 213.622H456.232V213.459H463.951V213.622ZM448.507 213.622H440.782V213.459H448.507V213.622ZM433.063 213.622H425.337V213.459H433.063V213.622ZM417.618 213.622H409.893V213.459H417.618V213.622ZM402.168 213.622H394.449V213.459H402.168V213.622ZM386.723 213.622H378.998V213.459H386.723V213.622ZM371.279 213.622H363.554V213.459H371.279V213.622ZM355.835 213.622H348.109V213.459H355.835V213.622ZM340.384 213.622H332.665V213.459H340.384V213.622ZM324.939 213.622H317.221V213.459H324.939V213.622ZM309.495 213.622H301.796V213.459H309.521L309.495 213.622ZM294.051 213.622H286.325V213.459H294.051V213.622ZM278.6 213.622H270.881V213.459H278.6V213.622ZM263.156 213.622H255.437V213.459H263.169L263.156 213.622ZM247.711 213.622H239.986V213.459H247.711V213.622ZM232.267 213.622H224.542V213.459H232.267V213.622ZM216.816 213.622H209.097V213.459H216.816V213.622Z" fill="#F2F2F2"/>
<path opacity="0.2" d="M552.833 213.459H548.905V213.622H552.833V213.459Z" fill="#F2F2F2"/>
<path opacity="0.2" d="M201.372 213.459H197.444V213.622H201.372V213.459Z" fill="#F2F2F2"/>
<path opacity="0.2" d="M541.18 213.622H533.461V213.459H541.18V213.622ZM525.735 213.622H518.016V213.459H525.735V213.622ZM510.291 213.622H502.565V213.459H510.291V213.622ZM494.847 213.622H487.121V213.459H494.847V213.622ZM479.402 213.622H471.677V213.459H479.402V213.622ZM463.951 213.622H456.232V213.459H463.951V213.622ZM448.507 213.622H440.782V213.459H448.507V213.622ZM433.063 213.622H425.337V213.459H433.063V213.622ZM417.618 213.622H409.893V213.459H417.618V213.622ZM402.168 213.622H394.449V213.459H402.168V213.622ZM386.723 213.622H378.998V213.459H386.723V213.622ZM371.279 213.622H363.554V213.459H371.279V213.622ZM355.835 213.622H348.109V213.459H355.835V213.622ZM340.384 213.622H332.665V213.459H340.384V213.622ZM324.939 213.622H317.221V213.459H324.939V213.622ZM309.495 213.622H301.796V213.459H309.521L309.495 213.622ZM294.051 213.622H286.325V213.459H294.051V213.622ZM278.6 213.622H270.881V213.459H278.6V213.622ZM263.156 213.622H255.437V213.459H263.169L263.156 213.622ZM247.711 213.622H239.986V213.459H247.711V213.622ZM232.267 213.622H224.542V213.459H232.267V213.622ZM216.816 213.622H209.097V213.459H216.816V213.622Z" fill="#F2F2F2"/>
<path opacity="0.2" d="M552.833 213.459H548.905V213.622H552.833V213.459Z" fill="#F2F2F2"/>
</g>
<path opacity="0.3" d="M197.444 181.99H183.597V186.191H197.444V181.99Z" fill="#6C63FF"/>
<path opacity="0.3" d="M566.922 182.114H553.076V186.315H566.922V182.114Z" fill="#6C63FF"/>
<g opacity="0.2">
<path opacity="0.2" d="M201.372 184.012H197.444V184.175H201.372V184.012Z" fill="#F2F2F2"/>
<path opacity="0.2" d="M541.18 184.175H533.461V184.012H541.18V184.175ZM525.735 184.175H518.016V184.012H525.735V184.175ZM510.291 184.175H502.565V184.012H510.291V184.175ZM494.847 184.175H487.121V184.012H494.847V184.175ZM479.402 184.175H471.677V184.012H479.402V184.175ZM463.951 184.175H456.232V184.012H463.951V184.175ZM448.507 184.175H440.782V184.012H448.507V184.175ZM433.063 184.175H425.337V184.012H433.063V184.175ZM417.618 184.175H409.893V184.012H417.618V184.175ZM402.168 184.175H394.449V184.012H402.168V184.175ZM386.723 184.175H378.998V184.012H386.723V184.175ZM371.279 184.175H363.554V184.012H371.279V184.175ZM355.835 184.175H348.109V184.012H355.835V184.175ZM340.384 184.175H332.665V184.012H340.384V184.175ZM324.939 184.175H317.221V184.012H324.939V184.175ZM309.495 184.175H301.796V184.012H309.521L309.495 184.175ZM294.051 184.175H286.325V184.012H294.051V184.175ZM278.6 184.175H270.881V184.012H278.6V184.175ZM263.156 184.175H255.437V184.012H263.169L263.156 184.175ZM247.711 184.175H239.986V184.012H247.711V184.175ZM232.267 184.175H224.542V184.012H232.267V184.175ZM216.816 184.175H209.097V184.012H216.816V184.175Z" fill="#F2F2F2"/>
<path opacity="0.2" d="M552.833 184.012H548.905V184.175H552.833V184.012Z" fill="#F2F2F2"/>
</g>
<path opacity="0.3" d="M566.922 240.969H553.076V245.17H566.922V240.969Z" fill="#6C63FF"/>
<g opacity="0.2">
<path opacity="0.2" d="M201.372 242.867H197.444V243.031H201.372V242.867Z" fill="#F2F2F2"/>
<path opacity="0.2" d="M541.18 243.023H533.461V242.86H541.18V243.023ZM525.735 243.023H518.016V242.86H525.735V243.023ZM510.291 243.023H502.565V242.86H510.291V243.023ZM494.847 243.023H487.121V242.86H494.847V243.023ZM479.402 243.023H471.677V242.86H479.402V243.023ZM463.951 243.023H456.232V242.86H463.951V243.023ZM448.507 243.023H440.782V242.86H448.507V243.023ZM433.063 243.023H425.337V242.86H433.063V243.023ZM417.618 243.023H409.893V242.86H417.618V243.023ZM402.168 243.023H394.449V242.86H402.168V243.023ZM386.723 243.023H378.998V242.86H386.723V243.023ZM371.279 243.023H363.554V242.86H371.279V243.023ZM355.835 243.023H348.109V242.86H355.835V243.023ZM340.384 243.023H332.665V242.86H340.384V243.023ZM324.939 243.023H317.221V242.86H324.939V243.023ZM309.495 243.023H301.796V242.86H309.521L309.495 243.023ZM294.051 243.023H286.325V242.86H294.051V243.023ZM278.6 243.023H270.881V242.86H278.6V243.023ZM263.156 243.023H255.437V242.86H263.169L263.156 243.023ZM247.711 243.023H239.986V242.86H247.711V243.023ZM232.267 243.023H224.542V242.86H232.267V243.023ZM216.816 243.023H209.097V242.86H216.816V243.023Z" fill="#F2F2F2"/>
<path opacity="0.2" d="M552.833 242.866H548.905V243.03H552.833V242.866Z" fill="#F2F2F2"/>
<path opacity="0.2" d="M201.372 242.867H197.444V243.031H201.372V242.867Z" fill="#F2F2F2"/>
<path opacity="0.2" d="M541.18 243.023H533.461V242.86H541.18V243.023ZM525.735 243.023H518.016V242.86H525.735V243.023ZM510.291 243.023H502.565V242.86H510.291V243.023ZM494.847 243.023H487.121V242.86H494.847V243.023ZM479.402 243.023H471.677V242.86H479.402V243.023ZM463.951 243.023H456.232V242.86H463.951V243.023ZM448.507 243.023H440.782V242.86H448.507V243.023ZM433.063 243.023H425.337V242.86H433.063V243.023ZM417.618 243.023H409.893V242.86H417.618V243.023ZM402.168 243.023H394.449V242.86H402.168V243.023ZM386.723 243.023H378.998V242.86H386.723V243.023ZM371.279 243.023H363.554V242.86H371.279V243.023ZM355.835 243.023H348.109V242.86H355.835V243.023ZM340.384 243.023H332.665V242.86H340.384V243.023ZM324.939 243.023H317.221V242.86H324.939V243.023ZM309.495 243.023H301.796V242.86H309.521L309.495 243.023ZM294.051 243.023H286.325V242.86H294.051V243.023ZM278.6 243.023H270.881V242.86H278.6V243.023ZM263.156 243.023H255.437V242.86H263.169L263.156 243.023ZM247.711 243.023H239.986V242.86H247.711V243.023ZM232.267 243.023H224.542V242.86H232.267V243.023ZM216.816 243.023H209.097V242.86H216.816V243.023Z" fill="#F2F2F2"/>
<path opacity="0.2" d="M552.833 242.866H548.905V243.03H552.833V242.866Z" fill="#F2F2F2"/>
</g>
<path opacity="0.3" d="M566.922 270.377H553.076V274.578H566.922V270.377Z" fill="#6C63FF"/>
<g opacity="0.2">
<path opacity="0.2" d="M201.372 272.268H197.444V272.431H201.372V272.268Z" fill="#F2F2F2"/>
<path opacity="0.2" d="M541.18 272.431H533.461V272.268H541.18V272.431ZM525.735 272.431H518.016V272.268H525.735V272.431ZM510.291 272.431H502.565V272.268H510.291V272.431ZM494.847 272.431H487.121V272.268H494.847V272.431ZM479.402 272.431H471.677V272.268H479.402V272.431ZM463.951 272.431H456.232V272.268H463.951V272.431ZM448.507 272.431H440.782V272.268H448.507V272.431ZM433.063 272.431H425.337V272.268H433.063V272.431ZM417.618 272.431H409.893V272.268H417.618V272.431ZM402.168 272.431H394.449V272.268H402.168V272.431ZM386.723 272.431H378.998V272.268H386.723V272.431ZM371.279 272.431H363.554V272.268H371.279V272.431ZM355.835 272.431H348.109V272.268H355.835V272.431ZM340.384 272.431H332.665V272.268H340.384V272.431ZM324.939 272.431H317.221V272.268H324.939V272.431ZM309.495 272.431H301.796V272.268H309.521L309.495 272.431ZM294.051 272.431H286.325V272.268H294.051V272.431ZM278.6 272.431H270.881V272.268H278.6V272.431ZM263.156 272.431H255.437V272.268H263.169L263.156 272.431ZM247.711 272.431H239.986V272.268H247.711V272.431ZM232.267 272.431H224.542V272.268H232.267V272.431ZM216.816 272.431H209.097V272.268H216.816V272.431Z" fill="#F2F2F2"/>
<path opacity="0.2" d="M552.833 272.268H548.905V272.431H552.833V272.268Z" fill="#F2F2F2"/>
<path opacity="0.2" d="M201.372 272.268H197.444V272.431H201.372V272.268Z" fill="#F2F2F2"/>
<path opacity="0.2" d="M541.18 272.431H533.461V272.268H541.18V272.431ZM525.735 272.431H518.016V272.268H525.735V272.431ZM510.291 272.431H502.565V272.268H510.291V272.431ZM494.847 272.431H487.121V272.268H494.847V272.431ZM479.402 272.431H471.677V272.268H479.402V272.431ZM463.951 272.431H456.232V272.268H463.951V272.431ZM448.507 272.431H440.782V272.268H448.507V272.431ZM433.063 272.431H425.337V272.268H433.063V272.431ZM417.618 272.431H409.893V272.268H417.618V272.431ZM402.168 272.431H394.449V272.268H402.168V272.431ZM386.723 272.431H378.998V272.268H386.723V272.431ZM371.279 272.431H363.554V272.268H371.279V272.431ZM355.835 272.431H348.109V272.268H355.835V272.431ZM340.384 272.431H332.665V272.268H340.384V272.431ZM324.939 272.431H317.221V272.268H324.939V272.431ZM309.495 272.431H301.796V272.268H309.521L309.495 272.431ZM294.051 272.431H286.325V272.268H294.051V272.431ZM278.6 272.431H270.881V272.268H278.6V272.431ZM263.156 272.431H255.437V272.268H263.169L263.156 272.431ZM247.711 272.431H239.986V272.268H247.711V272.431ZM232.267 272.431H224.542V272.268H232.267V272.431ZM216.816 272.431H209.097V272.268H216.816V272.431Z" fill="#F2F2F2"/>
<path opacity="0.2" d="M552.833 272.268H548.905V272.431H552.833V272.268Z" fill="#F2F2F2"/>
</g>
<path opacity="0.3" d="M566.922 299.778H553.076V303.979H566.922V299.778Z" fill="#6C63FF"/>
<g opacity="0.2">
<path opacity="0.2" d="M201.372 301.676H197.444V301.839H201.372V301.676Z" fill="#F2F2F2"/>
<path opacity="0.2" d="M541.18 301.839H533.461V301.676H541.18V301.839ZM525.735 301.839H518.016V301.676H525.735V301.839ZM510.291 301.839H502.565V301.676H510.291V301.839ZM494.847 301.839H487.121V301.676H494.847V301.839ZM479.402 301.839H471.677V301.676H479.402V301.839ZM463.951 301.839H456.232V301.676H463.951V301.839ZM448.507 301.839H440.782V301.676H448.507V301.839ZM433.063 301.839H425.337V301.676H433.063V301.839ZM417.618 301.839H409.893V301.676H417.618V301.839ZM402.168 301.839H394.449V301.676H402.168V301.839ZM386.723 301.839H378.998V301.676H386.723V301.839ZM371.279 301.839H363.554V301.676H371.279V301.839ZM355.835 301.839H348.109V301.676H355.835V301.839ZM340.384 301.839H332.665V301.676H340.384V301.839ZM324.939 301.839H317.221V301.676H324.939V301.839ZM309.495 301.839H301.796V301.676H309.521L309.495 301.839ZM294.051 301.839H286.325V301.676H294.051V301.839ZM278.6 301.839H270.881V301.676H278.6V301.839ZM263.156 301.839H255.437V301.676H263.169L263.156 301.839ZM247.711 301.839H239.986V301.676H247.711V301.839ZM232.267 301.839H224.542V301.676H232.267V301.839ZM216.816 301.839H209.097V301.676H216.816V301.839Z" fill="#F2F2F2"/>
<path opacity="0.2" d="M552.833 301.676H548.905V301.839H552.833V301.676Z" fill="#F2F2F2"/>
<path opacity="0.2" d="M201.372 301.676H197.444V301.839H201.372V301.676Z" fill="#F2F2F2"/>
<path opacity="0.2" d="M541.18 301.839H533.461V301.676H541.18V301.839ZM525.735 301.839H518.016V301.676H525.735V301.839ZM510.291 301.839H502.565V301.676H510.291V301.839ZM494.847 301.839H487.121V301.676H494.847V301.839ZM479.402 301.839H471.677V301.676H479.402V301.839ZM463.951 301.839H456.232V301.676H463.951V301.839ZM448.507 301.839H440.782V301.676H448.507V301.839ZM433.063 301.839H425.337V301.676H433.063V301.839ZM417.618 301.839H409.893V301.676H417.618V301.839ZM402.168 301.839H394.449V301.676H402.168V301.839ZM386.723 301.839H378.998V301.676H386.723V301.839ZM371.279 301.839H363.554V301.676H371.279V301.839ZM355.835 301.839H348.109V301.676H355.835V301.839ZM340.384 301.839H332.665V301.676H340.384V301.839ZM324.939 301.839H317.221V301.676H324.939V301.839ZM309.495 301.839H301.796V301.676H309.521L309.495 301.839ZM294.051 301.839H286.325V301.676H294.051V301.839ZM278.6 301.839H270.881V301.676H278.6V301.839ZM263.156 301.839H255.437V301.676H263.169L263.156 301.839ZM247.711 301.839H239.986V301.676H247.711V301.839ZM232.267 301.839H224.542V301.676H232.267V301.839ZM216.816 301.839H209.097V301.676H216.816V301.839Z" fill="#F2F2F2"/>
<path opacity="0.2" d="M552.833 301.676H548.905V301.839H552.833V301.676Z" fill="#F2F2F2"/>
</g>
<path d="M242.585 184.214V302.127" stroke="#F2F2F2" stroke-width="0.1" stroke-miterlimit="10"/>
<path d="M290.378 184.214V302.127" stroke="#F2F2F2" stroke-width="0.1" stroke-miterlimit="10"/>
<path d="M338.171 184.214V302.127" stroke="#F2F2F2" stroke-width="0.1" stroke-miterlimit="10"/>
<path d="M385.964 184.214V302.127" stroke="#F2F2F2" stroke-width="0.1" stroke-miterlimit="10"/>
<path d="M433.757 184.214V302.127" stroke="#F2F2F2" stroke-width="0.1" stroke-miterlimit="10"/>
<path d="M481.55 184.214V302.127" stroke="#F2F2F2" stroke-width="0.1" stroke-miterlimit="10"/>
<path d="M529.343 184.214V302.127" stroke="#F2F2F2" stroke-width="0.1" stroke-miterlimit="10"/>
<path opacity="0.3" d="M539.68 176.257L534.214 181.95C534.103 182.069 534.01 182.204 533.939 182.349L530.547 189.332C530.412 189.612 530.196 189.845 529.926 190.001C529.656 190.156 529.345 190.226 529.035 190.202L527.948 190.117C527.633 190.094 527.332 189.976 527.086 189.777C526.84 189.578 526.661 189.308 526.573 189.004L525.526 185.379C525.434 185.062 525.244 184.782 524.983 184.581C524.721 184.379 524.403 184.266 524.073 184.258C523.743 184.25 523.419 184.348 523.148 184.536C522.877 184.725 522.673 184.995 522.567 185.307L520.805 190.464C520.701 190.771 520.503 191.039 520.239 191.228C519.974 191.417 519.657 191.518 519.332 191.517H512.609C512.24 191.516 511.883 191.383 511.602 191.144C511.322 190.904 511.135 190.573 511.077 190.209L509.178 178.332C509.128 178.007 508.975 177.706 508.743 177.474C508.51 177.241 508.21 177.088 507.885 177.037C507.56 176.986 507.228 177.04 506.935 177.19C506.643 177.34 506.406 177.58 506.258 177.873L496.523 197.079C496.422 197.278 496.28 197.453 496.106 197.592C495.932 197.731 495.73 197.831 495.514 197.885C495.298 197.939 495.072 197.946 494.853 197.905C494.634 197.865 494.427 197.777 494.244 197.649L488.457 193.565C488.141 193.344 487.755 193.247 487.371 193.293C486.988 193.339 486.636 193.524 486.381 193.814L484.188 196.347C484.123 196.421 484.066 196.503 484.018 196.589L478.165 206.712C478.017 206.971 477.796 207.182 477.529 207.318C477.263 207.454 476.963 207.509 476.666 207.478L473.098 207.124C472.848 207.1 472.597 207.136 472.364 207.229L469.169 208.505C468.799 208.644 468.39 208.637 468.025 208.485C467.66 208.333 467.367 208.048 467.205 207.687L466.505 206.084C466.379 205.797 466.168 205.554 465.902 205.389C465.636 205.223 465.326 205.141 465.012 205.155L461.359 205.325C461.133 205.334 460.911 205.394 460.711 205.499C460.511 205.604 460.336 205.753 460.2 205.933L459.166 207.281C458.995 207.504 458.768 207.676 458.508 207.779C458.248 207.883 457.964 207.914 457.688 207.87C457.411 207.826 457.152 207.708 456.937 207.528C456.723 207.348 456.56 207.114 456.468 206.849L455.159 203.152C455.078 202.922 454.944 202.714 454.768 202.546C454.592 202.377 454.379 202.252 454.145 202.182C453.912 202.111 453.665 202.096 453.425 202.138C453.184 202.181 452.958 202.279 452.763 202.426L446.543 207.085L439.669 212.628C439.434 212.816 439.149 212.933 438.849 212.963C438.55 212.993 438.247 212.936 437.98 212.798L432.644 210.03C432.357 209.883 432.033 209.828 431.714 209.873L420.905 211.384C420.592 211.427 420.299 211.563 420.065 211.776C419.831 211.989 419.667 212.267 419.596 212.575L417.677 220.905C417.618 221.165 417.492 221.405 417.312 221.603C417.132 221.8 416.905 221.947 416.651 222.031C416.398 222.114 416.127 222.131 415.866 222.08C415.604 222.028 415.36 221.91 415.157 221.737C414.977 221.583 414.765 221.473 414.537 221.414C414.308 221.355 414.069 221.348 413.838 221.395C413.606 221.441 413.388 221.54 413.201 221.683C413.013 221.826 412.86 222.01 412.754 222.221L411.281 225.172C411.17 225.39 411.011 225.579 410.814 225.725C410.617 225.87 410.389 225.968 410.148 226.01L406.803 226.566C406.587 226.603 406.382 226.686 406.201 226.808L400.93 230.315C400.677 230.486 400.378 230.577 400.073 230.577H397.604C397.301 230.578 397.004 230.489 396.75 230.323C396.497 230.157 396.297 229.92 396.177 229.641L395.522 228.077C395.439 227.888 395.319 227.717 395.168 227.575C395.017 227.432 394.84 227.322 394.646 227.249C394.452 227.177 394.245 227.144 394.038 227.152C393.831 227.161 393.628 227.21 393.441 227.299L387.718 229.975C387.488 230.083 387.234 230.133 386.98 230.121C386.725 230.108 386.477 230.034 386.258 229.903L383.64 228.326C383.398 228.182 383.122 228.105 382.841 228.104H377.06C376.755 228.105 376.456 228.196 376.202 228.365L370.434 232.194C370.212 232.341 369.956 232.429 369.69 232.448C369.424 232.468 369.157 232.418 368.916 232.305L366.297 231.068C365.992 230.925 365.648 230.886 365.319 230.956C364.989 231.025 364.691 231.2 364.47 231.454L363.226 232.874C363.064 233.062 362.858 233.208 362.626 233.3C362.395 233.391 362.145 233.426 361.898 233.4C361.65 233.375 361.413 233.289 361.205 233.152C360.998 233.015 360.826 232.83 360.706 232.612L360.332 231.958C360.231 231.777 360.095 231.618 359.931 231.491C359.768 231.364 359.58 231.271 359.38 231.217C359.18 231.163 358.971 231.15 358.766 231.179C358.561 231.207 358.363 231.276 358.185 231.382L353.648 234.072C353.413 234.206 353.147 234.277 352.875 234.277C352.604 234.277 352.338 234.206 352.103 234.072L350.23 233.031C350.019 232.912 349.783 232.845 349.54 232.835C349.298 232.824 349.057 232.871 348.836 232.972L347.055 233.784C346.855 233.873 346.638 233.92 346.419 233.921C346.199 233.921 345.982 233.875 345.781 233.786C345.581 233.698 345.401 233.568 345.254 233.405C345.107 233.242 344.995 233.05 344.927 232.841L343.775 229.412C343.677 229.098 343.48 228.823 343.214 228.628C342.947 228.434 342.625 228.33 342.296 228.333H340.62C340.356 228.334 340.096 228.266 339.867 228.136L333.431 224.609C333.169 224.468 332.872 224.404 332.575 224.426C332.278 224.448 331.993 224.555 331.755 224.734L327.035 228.267C326.766 228.468 326.44 228.576 326.105 228.575H320.167C319.861 228.575 319.563 228.666 319.309 228.837L318.196 229.576C318.013 229.699 317.806 229.781 317.588 229.817C317.371 229.854 317.148 229.843 316.935 229.787C316.722 229.731 316.524 229.63 316.353 229.491C316.182 229.351 316.042 229.178 315.944 228.981L315.676 228.45C315.548 228.191 315.351 227.973 315.105 227.82C314.86 227.667 314.577 227.586 314.288 227.587H311.309C311.072 227.587 310.839 227.642 310.627 227.746C310.415 227.85 310.229 228.002 310.084 228.189L308.238 230.551C308.085 230.747 307.887 230.903 307.661 231.007C307.435 231.11 307.187 231.158 306.939 231.146C306.691 231.133 306.449 231.062 306.234 230.937C306.019 230.812 305.838 230.637 305.704 230.427L305.181 229.609C304.965 229.266 304.623 229.022 304.228 228.929C303.834 228.836 303.419 228.901 303.073 229.111L301.541 230.028C301.28 230.183 300.979 230.26 300.675 230.247C300.372 230.234 300.079 230.133 299.832 229.956L293.658 225.486C293.548 225.408 293.429 225.342 293.305 225.29L288.479 223.438C288.104 223.301 287.69 223.315 287.324 223.476C286.958 223.637 286.668 223.933 286.515 224.302L283.157 232.481C283.108 232.596 283.075 232.718 283.059 232.841L281.972 240.21C281.924 240.521 281.782 240.811 281.566 241.041L279.268 243.508C279.03 243.759 278.715 243.925 278.372 243.978C278.03 244.031 277.679 243.969 277.376 243.802L273.389 241.59C273.19 241.479 272.97 241.413 272.743 241.397C272.516 241.38 272.289 241.414 272.076 241.495C271.864 241.576 271.672 241.703 271.514 241.866C271.356 242.03 271.236 242.226 271.163 242.441L268.636 249.829C268.578 249.991 268.549 250.161 268.55 250.333V254.992C268.55 255.294 268.461 255.59 268.294 255.842C268.128 256.094 267.892 256.292 267.614 256.412L263.562 258.205C263.336 258.302 263.091 258.344 262.847 258.328C262.602 258.312 262.365 258.239 262.154 258.113L259.103 256.32C258.799 256.143 258.444 256.073 258.095 256.124L252.746 256.89C252.44 256.934 252.128 256.885 251.85 256.749C251.573 256.614 251.342 256.398 251.188 256.131L250.284 254.586C250.089 254.253 249.776 254.006 249.407 253.893L246.978 253.134C246.695 253.044 246.392 253.037 246.105 253.115C245.818 253.193 245.56 253.351 245.361 253.572L241.989 257.315C241.723 257.609 241.356 257.791 240.961 257.826L235.986 258.244C235.755 258.257 235.531 258.325 235.331 258.441L226.656 263.427C226.386 263.581 226.075 263.65 225.764 263.625C225.454 263.601 225.158 263.484 224.915 263.29L222.453 261.326C222.177 261.108 221.836 260.988 221.484 260.986H212.161C211.928 260.987 211.699 260.935 211.489 260.834C211.279 260.733 211.095 260.586 210.95 260.404L208.6 257.472C208.459 257.297 208.282 257.154 208.08 257.054C207.879 256.955 207.658 256.9 207.433 256.893C207.208 256.887 206.985 256.93 206.778 257.018C206.572 257.107 206.387 257.24 206.236 257.407L203.408 260.548C203.152 260.831 203.01 261.2 203.009 261.582V300.609C203.009 301.02 203.172 301.415 203.463 301.706C203.754 301.996 204.149 302.16 204.56 302.16H540.898C541.102 302.16 541.305 302.119 541.493 302.041C541.682 301.963 541.853 301.848 541.998 301.703C542.142 301.559 542.256 301.387 542.333 301.198C542.411 301.009 542.451 300.807 542.45 300.602L542.358 177.363C542.363 177.051 542.273 176.745 542.102 176.484C541.93 176.223 541.684 176.02 541.395 175.901C541.106 175.782 540.789 175.752 540.483 175.815C540.177 175.879 539.897 176.033 539.68 176.257Z" fill="#6C63FF"/>
<path opacity="0.3" d="M539.379 226.795L534.312 230.171C534.134 230.291 533.977 230.439 533.847 230.61L530.698 234.765C530.507 235.011 530.26 235.209 529.978 235.341C529.695 235.473 529.386 235.536 529.074 235.524L528.046 235.472C527.694 235.454 527.352 235.34 527.06 235.141C526.768 234.943 526.536 234.668 526.39 234.346L525.735 232.953C525.589 232.625 525.354 232.346 525.056 232.146C524.758 231.946 524.41 231.833 524.052 231.822C523.693 231.81 523.338 231.9 523.028 232.08C522.718 232.26 522.465 232.524 522.298 232.841L520.989 235.348C520.825 235.655 520.581 235.912 520.282 236.091C519.983 236.269 519.641 236.363 519.293 236.362H512.798C512.37 236.364 511.954 236.222 511.617 235.958C511.279 235.694 511.041 235.325 510.939 234.909L509.381 228.673C509.294 228.325 509.112 228.009 508.854 227.76C508.597 227.511 508.275 227.338 507.925 227.263C507.574 227.187 507.21 227.211 506.872 227.332C506.535 227.453 506.238 227.666 506.016 227.947L496.654 239.778C496.39 240.114 496.02 240.352 495.604 240.453C495.189 240.554 494.751 240.512 494.362 240.334L488.346 237.618C488.03 237.471 487.681 237.412 487.335 237.448C486.989 237.483 486.66 237.613 486.381 237.821L484.227 239.411C484.124 239.488 484.03 239.576 483.946 239.673L478.263 245.962C478.072 246.181 477.834 246.353 477.566 246.467C477.298 246.58 477.008 246.631 476.718 246.616L473.006 246.38C472.804 246.368 472.601 246.386 472.404 246.433L469.058 247.29C468.677 247.39 468.274 247.369 467.905 247.231C467.535 247.092 467.218 246.843 466.996 246.518L466.616 245.955C466.434 245.691 466.19 245.476 465.904 245.331C465.618 245.186 465.3 245.115 464.979 245.124L461.248 245.235C460.817 245.242 460.402 245.4 460.076 245.68L459.159 246.446C458.942 246.628 458.687 246.76 458.413 246.832C458.139 246.904 457.853 246.914 457.574 246.862C457.295 246.81 457.032 246.697 456.802 246.531C456.572 246.366 456.382 246.151 456.246 245.903L455.277 244.149C455.04 243.72 454.649 243.398 454.183 243.249C453.717 243.099 453.211 243.133 452.769 243.344L446.491 246.361L439.544 249.947C439.318 250.063 439.07 250.133 438.816 250.152C438.562 250.171 438.306 250.139 438.065 250.058L432.533 248.226C432.284 248.144 432.021 248.113 431.76 248.134L421.049 249.044C420.686 249.081 420.34 249.219 420.051 249.443C419.762 249.666 419.541 249.965 419.412 250.307L417.861 254.639C417.767 254.899 417.618 255.136 417.424 255.333C417.23 255.531 416.996 255.684 416.737 255.782C416.478 255.88 416.201 255.921 415.925 255.902C415.649 255.883 415.38 255.805 415.137 255.673L415.072 255.64C414.674 255.419 414.211 255.348 413.765 255.44C413.32 255.531 412.922 255.778 412.643 256.137L411.425 257.695C411.102 258.1 410.631 258.361 410.116 258.421L406.764 258.781C406.575 258.8 406.389 258.846 406.214 258.918L400.904 261.189C400.665 261.287 400.409 261.338 400.151 261.34H397.598C397.285 261.339 396.978 261.263 396.702 261.117C396.426 260.971 396.189 260.76 396.013 260.502L395.647 259.965C395.417 259.63 395.086 259.376 394.703 259.241C394.319 259.106 393.902 259.096 393.513 259.213L387.561 261.012C387.153 261.135 386.715 261.119 386.317 260.967L383.555 259.907C383.346 259.824 383.124 259.78 382.9 259.776H376.968C376.711 259.775 376.457 259.829 376.222 259.933L370.33 262.432C369.916 262.611 369.451 262.637 369.02 262.504L366.107 261.634C365.823 261.549 365.524 261.531 365.232 261.581C364.94 261.631 364.664 261.748 364.424 261.922L363.148 262.858C362.761 263.14 362.283 263.268 361.807 263.216C361.33 263.164 360.891 262.936 360.575 262.576L360.385 262.36C360.127 262.067 359.786 261.858 359.407 261.764C359.028 261.669 358.629 261.692 358.264 261.83L353.517 263.643C353.094 263.797 352.631 263.797 352.208 263.643L350.126 262.897C349.746 262.766 349.334 262.754 348.947 262.864L346.983 263.434C346.553 263.558 346.093 263.527 345.683 263.348C345.273 263.169 344.938 262.852 344.738 262.452L344.004 260.98C343.844 260.662 343.599 260.394 343.297 260.207C342.994 260.02 342.645 259.92 342.289 259.92H340.587C340.364 259.923 340.142 259.888 339.932 259.815L333.326 257.498C333.089 257.413 332.837 257.377 332.585 257.39C332.333 257.404 332.087 257.467 331.86 257.577L327.035 259.893C326.775 260.017 326.491 260.082 326.203 260.083H320.108C319.849 260.084 319.594 260.135 319.355 260.234L318.111 260.77C317.722 260.935 317.289 260.968 316.88 260.862C316.47 260.757 316.107 260.52 315.846 260.188C315.667 259.957 315.438 259.771 315.175 259.643C314.913 259.515 314.625 259.448 314.333 259.448H311.256C310.813 259.448 310.383 259.6 310.039 259.88L308.251 261.346C307.884 261.65 307.416 261.806 306.939 261.781C306.463 261.757 306.013 261.555 305.678 261.215L305.272 260.81C305.01 260.546 304.677 260.364 304.313 260.286C303.949 260.208 303.57 260.238 303.223 260.371L301.442 261.058C300.955 261.24 300.416 261.221 299.943 261.006L293.678 258.1C293.567 258.048 293.451 258.008 293.331 257.983L288.414 256.772C288.026 256.675 287.618 256.703 287.246 256.851C286.875 256.999 286.56 257.26 286.345 257.597L283.255 262.413C283.137 262.598 283.05 262.801 283 263.015L282.063 267.105C281.951 267.572 281.672 267.981 281.278 268.256L279.235 269.657C278.986 269.828 278.701 269.938 278.401 269.976C278.102 270.015 277.797 269.982 277.513 269.879L273.31 268.387C272.871 268.232 272.39 268.242 271.957 268.416C271.525 268.589 271.17 268.914 270.96 269.33L268.747 273.465C268.601 273.744 268.525 274.054 268.524 274.368V276.233C268.522 276.652 268.384 277.059 268.13 277.392C267.876 277.725 267.52 277.966 267.117 278.079L263.437 279.099C263.047 279.21 262.631 279.192 262.252 279.047L259.044 277.837C258.773 277.732 258.482 277.692 258.193 277.719L252.661 278.223C252.366 278.251 252.069 278.21 251.792 278.104C251.516 277.997 251.269 277.827 251.07 277.607L250.415 276.881C250.143 276.576 249.777 276.369 249.374 276.292L246.854 275.782C246.596 275.733 246.331 275.736 246.075 275.791C245.819 275.846 245.576 275.952 245.361 276.102L242.042 278.465C241.745 278.673 241.396 278.796 241.033 278.818L235.946 279.086C235.754 279.098 235.564 279.138 235.383 279.204L226.552 282.476C226.304 282.57 226.04 282.61 225.776 282.594C225.512 282.579 225.254 282.507 225.02 282.384L222.466 281.076C222.197 280.938 221.898 280.866 221.595 280.866H212.102C211.664 280.866 211.239 280.716 210.898 280.441L208.6 278.602C208.274 278.342 207.872 278.194 207.455 278.182C207.038 278.171 206.629 278.295 206.289 278.537L203.827 280.29C203.578 280.468 203.375 280.703 203.235 280.975C203.095 281.247 203.022 281.549 203.022 281.854V300.249C203.022 300.758 203.224 301.245 203.584 301.605C203.943 301.964 204.431 302.166 204.94 302.166H540.531C541.04 302.166 541.528 301.964 541.888 301.605C542.248 301.245 542.45 300.758 542.45 300.249L542.358 228.418C542.363 228.069 542.272 227.725 542.096 227.424C541.92 227.123 541.664 226.876 541.358 226.709C541.052 226.542 540.705 226.462 540.357 226.477C540.008 226.492 539.67 226.602 539.379 226.795Z" fill="#6C63FF"/>
<path d="M540.734 230.891C543.265 230.891 545.317 228.84 545.317 226.311C545.317 223.781 543.265 221.73 540.734 221.73C538.203 221.73 536.151 223.781 536.151 226.311C536.151 228.84 538.203 230.891 540.734 230.891Z" fill="#6C63FF"/>
<path opacity="0.3" d="M540.44 271.626L534.214 273.701C534.094 273.742 533.98 273.797 533.873 273.864L530.456 276.122C530.207 276.284 529.914 276.366 529.618 276.358L527.49 276.305C527.292 276.301 527.097 276.257 526.917 276.175C526.737 276.092 526.575 275.974 526.442 275.828L525.133 274.388C525.003 274.244 524.845 274.128 524.67 274.045C524.494 273.963 524.304 273.917 524.11 273.909C523.916 273.901 523.722 273.932 523.541 273.999C523.359 274.067 523.192 274.17 523.051 274.303L520.845 276.371C520.577 276.627 520.22 276.77 519.849 276.77H512.203C511.93 276.772 511.663 276.696 511.431 276.553C511.199 276.409 511.013 276.203 510.893 275.958L509.145 272.471C509.054 272.289 508.926 272.128 508.769 271.998C508.612 271.869 508.429 271.774 508.233 271.719C508.037 271.664 507.832 271.651 507.63 271.68C507.429 271.709 507.236 271.78 507.063 271.888L496.241 278.74C495.914 278.945 495.519 279.013 495.141 278.929L487.73 277.261C487.456 277.196 487.169 277.214 486.905 277.313L484.201 278.314C484.13 278.336 484.062 278.367 483.998 278.406L478.021 281.717C477.79 281.843 477.531 281.906 477.268 281.9L472.842 281.756C472.766 281.75 472.689 281.75 472.613 281.756L468.357 282.299C467.987 282.345 467.613 282.249 467.31 282.031L466.446 281.377C466.19 281.188 465.88 281.089 465.562 281.095L460.894 281.161C460.707 281.161 460.522 281.199 460.351 281.272L458.255 282.155C457.999 282.261 457.718 282.293 457.444 282.245C457.171 282.198 456.916 282.073 456.71 281.887L454.995 280.369C454.82 280.211 454.61 280.099 454.382 280.041C454.153 279.983 453.915 279.981 453.686 280.035L446.523 281.763L439.158 283.667C438.959 283.71 438.754 283.71 438.556 283.667L432.336 282.633C432.236 282.627 432.135 282.627 432.035 282.633L420.532 283.15C420.311 283.16 420.096 283.22 419.902 283.325C419.708 283.431 419.54 283.579 419.412 283.759L417.677 286.147C417.504 286.39 417.261 286.573 416.979 286.673C416.698 286.772 416.393 286.783 416.106 286.703L414.253 286.193C414.056 286.141 413.85 286.13 413.648 286.162C413.446 286.194 413.253 286.266 413.081 286.376L411.229 287.561C411.015 287.693 410.772 287.769 410.522 287.783L406.593 287.999C406.519 287.993 406.445 287.993 406.371 287.999L400.701 289.21C400.6 289.23 400.497 289.241 400.393 289.242H397.067C396.759 289.242 396.458 289.144 396.21 288.961L395.346 288.307C395.193 288.193 395.02 288.111 394.836 288.065C394.651 288.019 394.46 288.01 394.272 288.038L387.195 289.098C387.032 289.125 386.866 289.125 386.704 289.098L383.378 288.444C383.286 288.434 383.194 288.434 383.103 288.444H376.719C376.619 288.434 376.518 288.434 376.418 288.444L369.943 289.818C369.77 289.851 369.593 289.851 369.42 289.818L365.563 289.236C365.321 289.203 365.073 289.23 364.843 289.314L362.369 290.217C362.169 290.292 361.956 290.321 361.745 290.303C361.533 290.285 361.328 290.22 361.144 290.113L359.972 289.458C359.675 289.283 359.323 289.222 358.984 289.288L353.091 290.407C352.916 290.44 352.736 290.44 352.561 290.407L349.726 289.903C349.572 289.88 349.416 289.88 349.261 289.903L346.132 290.355C345.908 290.389 345.68 290.37 345.465 290.3C345.25 290.229 345.055 290.109 344.895 289.949L343.86 288.961C343.584 288.691 343.213 288.538 342.826 288.536H340.344C340.262 288.542 340.178 288.542 340.096 288.536L332.855 287.266C332.658 287.224 332.455 287.224 332.259 287.266L326.786 288.575C326.674 288.601 326.56 288.614 326.445 288.614H319.852C319.752 288.604 319.651 288.604 319.551 288.614L317.319 289.092C316.943 289.196 316.541 289.149 316.199 288.961L315.584 288.562C315.349 288.412 315.076 288.333 314.798 288.333H310.811C310.622 288.334 310.435 288.371 310.261 288.444L307.472 289.583C307.28 289.663 307.073 289.7 306.865 289.692C306.657 289.684 306.453 289.631 306.267 289.537L304.788 288.791C304.501 288.647 304.174 288.601 303.858 288.66L300.938 289.223C300.74 289.265 300.534 289.265 300.336 289.223L293.566 287.652H293.416L287.661 286.939C287.277 286.895 286.892 287.003 286.587 287.24L283.314 289.779C283.13 289.921 282.984 290.105 282.888 290.316L282.155 291.945C282.072 292.124 281.954 292.285 281.808 292.417C281.662 292.55 281.49 292.652 281.304 292.717L278.79 293.574C278.557 293.659 278.306 293.679 278.063 293.633L272.472 292.639C272.249 292.6 272.02 292.614 271.803 292.678C271.586 292.743 271.387 292.857 271.222 293.012L269.002 295.086C268.856 295.223 268.741 295.388 268.662 295.572C268.583 295.755 268.543 295.953 268.544 296.153C268.544 296.504 268.417 296.843 268.185 297.108C267.954 297.373 267.635 297.545 267.287 297.592L263.09 298.175C262.934 298.201 262.775 298.201 262.619 298.175L258.822 297.455C258.708 297.442 258.594 297.442 258.481 297.455L252.137 297.743C251.871 297.753 251.606 297.692 251.371 297.566L250.258 296.957C250.087 296.86 249.898 296.8 249.702 296.781L246.369 296.447C246.148 296.424 245.924 296.451 245.715 296.526L241.786 297.919C241.641 297.971 241.489 298 241.335 298.004L235.75 298.155C235.674 298.148 235.597 298.148 235.521 298.155L226.061 299.902C225.855 299.945 225.644 299.945 225.439 299.902L222.217 299.078C222.097 299.049 221.974 299.034 221.851 299.032H211.696C211.51 299.034 211.325 298.998 211.153 298.927L207.971 297.658C207.638 297.53 207.27 297.53 206.937 297.658L203.978 298.711C203.694 298.81 203.448 298.995 203.275 299.24C203.101 299.486 203.008 299.779 203.009 300.079V300.733C203.008 300.925 203.045 301.114 203.117 301.291C203.19 301.468 203.297 301.629 203.432 301.765C203.567 301.9 203.728 302.008 203.904 302.081C204.081 302.155 204.271 302.192 204.462 302.192H540.977C541.168 302.192 541.357 302.155 541.534 302.081C541.711 302.008 541.872 301.9 542.007 301.765C542.142 301.629 542.249 301.468 542.321 301.291C542.394 301.114 542.431 300.925 542.43 300.733L542.345 273.073C542.354 272.838 542.306 272.605 542.206 272.393C542.106 272.181 541.956 271.996 541.769 271.854C541.582 271.712 541.364 271.617 541.132 271.577C540.901 271.538 540.663 271.555 540.44 271.626Z" fill="#6C63FF"/>
<path d="M288.676 261.647C291.207 261.647 293.259 259.596 293.259 257.066C293.259 254.537 291.207 252.486 288.676 252.486C286.145 252.486 284.093 254.537 284.093 257.066C284.093 259.596 286.145 261.647 288.676 261.647Z" fill="#6C63FF"/>
<path d="M508.654 232.854C511.185 232.854 513.237 230.804 513.237 228.274C513.237 225.744 511.185 223.693 508.654 223.693C506.123 223.693 504.071 225.744 504.071 228.274C504.071 230.804 506.123 232.854 508.654 232.854Z" fill="#6C63FF"/>
<path d="M394.737 263.61C397.268 263.61 399.32 261.56 399.32 259.03C399.32 256.5 397.268 254.449 394.737 254.449C392.206 254.449 390.154 256.5 390.154 259.03C390.154 261.56 392.206 263.61 394.737 263.61Z" fill="#6C63FF"/>
<path d="M454.314 247.251C456.845 247.251 458.897 245.2 458.897 242.67C458.897 240.14 456.845 238.089 454.314 238.089C451.783 238.089 449.731 240.14 449.731 242.67C449.731 245.2 451.783 247.251 454.314 247.251Z" fill="#6C63FF"/>
<path d="M543.013 228.379C543.011 228.032 542.916 227.693 542.738 227.397C542.559 227.1 542.303 226.858 541.998 226.695C541.693 226.532 541.349 226.454 541.003 226.471C540.657 226.487 540.322 226.597 540.034 226.788L534.966 230.165C534.789 230.285 534.632 230.433 534.502 230.603L531.352 234.759C531.162 235.005 530.915 235.202 530.632 235.334C530.35 235.466 530.04 235.529 529.729 235.518L528.701 235.465C528.348 235.448 528.007 235.333 527.715 235.135C527.423 234.936 527.191 234.661 527.045 234.34L526.39 232.946C526.244 232.619 526.008 232.339 525.71 232.139C525.413 231.939 525.065 231.827 524.706 231.815C524.348 231.804 523.993 231.893 523.683 232.073C523.373 232.254 523.12 232.518 522.953 232.835L521.643 235.341C521.48 235.649 521.236 235.905 520.937 236.084C520.638 236.263 520.296 236.357 519.948 236.355H513.453C513.025 236.357 512.609 236.215 512.271 235.951C511.934 235.688 511.695 235.318 511.594 234.903L510.036 228.666C509.949 228.319 509.766 228.003 509.509 227.753C509.252 227.504 508.929 227.332 508.579 227.256C508.229 227.181 507.864 227.205 507.527 227.325C507.19 227.446 506.893 227.659 506.67 227.94L497.308 239.771C497.044 240.108 496.675 240.345 496.259 240.446C495.843 240.547 495.406 240.505 495.017 240.327L489 237.612C488.685 237.464 488.336 237.405 487.99 237.441C487.644 237.477 487.314 237.606 487.036 237.815L484.882 239.405C484.779 239.482 484.685 239.569 484.601 239.667L478.918 245.955C478.727 246.174 478.488 246.347 478.221 246.46C477.953 246.574 477.663 246.625 477.373 246.61L473.661 246.374C473.458 246.362 473.255 246.379 473.058 246.426L469.713 247.284C469.331 247.383 468.928 247.362 468.559 247.224C468.19 247.086 467.873 246.837 467.65 246.511L467.271 245.949C467.089 245.684 466.844 245.47 466.558 245.325C466.272 245.179 465.955 245.108 465.634 245.118L461.902 245.229C461.472 245.236 461.057 245.393 460.73 245.674L459.814 246.439C459.597 246.621 459.342 246.753 459.068 246.825C458.794 246.897 458.507 246.908 458.229 246.856C457.95 246.804 457.686 246.691 457.457 246.525C457.227 246.359 457.037 246.144 456.9 245.896L455.931 244.143C455.695 243.714 455.304 243.392 454.838 243.242C454.371 243.092 453.866 243.127 453.424 243.338L447.145 246.354L440.199 249.94C439.972 250.057 439.725 250.127 439.47 250.146C439.216 250.165 438.961 250.133 438.719 250.052L433.187 248.219C432.938 248.138 432.676 248.106 432.415 248.128L421.704 249.044C421.34 249.081 420.995 249.219 420.706 249.443C420.417 249.666 420.195 249.965 420.067 250.307L418.515 254.639C418.422 254.899 418.273 255.136 418.079 255.333C417.885 255.531 417.65 255.684 417.392 255.782C417.133 255.88 416.856 255.921 416.58 255.902C416.304 255.883 416.035 255.805 415.792 255.673L415.726 255.64C415.329 255.419 414.865 255.348 414.42 255.44C413.974 255.531 413.576 255.778 413.297 256.137L412.08 257.695C411.756 258.1 411.286 258.361 410.77 258.421L407.418 258.781C407.229 258.8 407.044 258.846 406.868 258.918L401.559 261.189C401.32 261.287 401.064 261.338 400.806 261.34H398.253C397.94 261.339 397.633 261.263 397.356 261.117C397.08 260.971 396.844 260.76 396.668 260.502L396.301 259.965C396.072 259.63 395.741 259.376 395.357 259.241C394.974 259.106 394.557 259.096 394.167 259.213L388.216 261.012C387.808 261.135 387.37 261.119 386.972 260.967L384.209 259.906C384.001 259.824 383.779 259.78 383.555 259.776H377.623C377.366 259.775 377.112 259.829 376.877 259.933L370.984 262.432C370.57 262.611 370.106 262.637 369.675 262.504L366.762 261.634C366.478 261.549 366.178 261.531 365.887 261.581C365.595 261.631 365.318 261.748 365.079 261.922L363.802 262.858C363.416 263.14 362.937 263.268 362.461 263.216C361.985 263.164 361.546 262.936 361.229 262.576L361.039 262.36C360.782 262.067 360.441 261.858 360.062 261.764C359.683 261.669 359.284 261.692 358.918 261.83L354.172 263.643C353.749 263.797 353.285 263.797 352.862 263.643L350.78 262.897C350.4 262.766 349.989 262.754 349.602 262.864L347.638 263.434C347.208 263.558 346.748 263.527 346.338 263.348C345.928 263.169 345.593 262.852 345.392 262.452L344.659 260.98C344.499 260.662 344.254 260.394 343.951 260.207C343.649 260.02 343.3 259.92 342.944 259.92H341.241C341.019 259.923 340.797 259.888 340.587 259.815L333.981 257.498C333.743 257.413 333.491 257.377 333.24 257.39C332.988 257.404 332.741 257.467 332.514 257.577L327.689 259.893C327.429 260.017 327.145 260.082 326.858 260.083H320.762C320.504 260.084 320.249 260.135 320.01 260.234L318.766 260.77C318.376 260.935 317.944 260.968 317.534 260.862C317.125 260.757 316.762 260.52 316.5 260.188C316.322 259.957 316.092 259.771 315.83 259.643C315.568 259.515 315.28 259.448 314.988 259.448H311.911C311.467 259.448 311.037 259.6 310.693 259.88L308.906 261.346C308.539 261.65 308.07 261.805 307.594 261.781C307.118 261.757 306.668 261.555 306.333 261.215L305.927 260.81C305.665 260.546 305.331 260.364 304.968 260.286C304.604 260.208 304.225 260.238 303.878 260.371L302.097 261.058C301.61 261.24 301.071 261.221 300.598 261.006L294.332 258.1C294.222 258.048 294.105 258.008 293.985 257.983L289.069 256.772C288.681 256.675 288.272 256.703 287.901 256.851C287.53 256.999 287.214 257.26 287 257.597L283.91 262.413C283.791 262.598 283.705 262.801 283.654 263.015L282.718 267.105C282.606 267.572 282.326 267.981 281.932 268.256L279.89 269.657C279.641 269.828 279.355 269.938 279.056 269.976C278.756 270.015 278.452 269.982 278.168 269.879L273.965 268.387C273.525 268.232 273.044 268.242 272.612 268.416C272.179 268.589 271.825 268.914 271.614 269.33L269.401 273.465C269.256 273.744 269.18 274.054 269.179 274.368V276.233C269.177 276.652 269.039 277.059 268.785 277.392C268.531 277.725 268.175 277.966 267.771 278.079L264.092 279.099C263.702 279.21 263.286 279.192 262.907 279.047L259.699 277.836C259.428 277.732 259.137 277.692 258.848 277.719L253.316 278.223C253.021 278.251 252.723 278.21 252.447 278.104C252.171 277.997 251.923 277.827 251.725 277.607L251.07 276.881C250.797 276.576 250.431 276.369 250.029 276.292L247.508 275.782C247.251 275.733 246.986 275.736 246.73 275.791C246.473 275.846 246.23 275.952 246.016 276.102L242.696 278.465C242.399 278.673 242.05 278.796 241.688 278.818L236.601 279.086C236.409 279.098 236.219 279.138 236.038 279.204L227.206 282.476C226.959 282.57 226.694 282.61 226.43 282.594C226.166 282.579 225.909 282.507 225.674 282.384L223.121 281.076C222.851 280.938 222.553 280.866 222.25 280.866H212.757C212.319 280.866 211.894 280.716 211.552 280.441L209.254 278.602C208.929 278.341 208.527 278.194 208.11 278.182C207.693 278.17 207.283 278.295 206.943 278.537L204.482 280.29C204.233 280.468 204.03 280.703 203.89 280.975C203.75 281.247 203.677 281.548 203.676 281.854" stroke="#6C63FF" stroke-miterlimit="10"/>
<path opacity="0.2" d="M566.922 329.016H183.924V329.081H566.922V329.016Z" fill="#F2F2F2"/>
<path opacity="0.3" d="M242.847 332.32C244.655 332.32 246.12 330.855 246.12 329.048C246.12 327.241 244.655 325.776 242.847 325.776C241.039 325.776 239.574 327.241 239.574 329.048C239.574 330.855 241.039 332.32 242.847 332.32Z" fill="#6C63FF"/>
<path opacity="0.3" d="M290.64 332.32C292.448 332.32 293.913 330.855 293.913 329.048C293.913 327.241 292.448 325.776 290.64 325.776C288.832 325.776 287.366 327.241 287.366 329.048C287.366 330.855 288.832 332.32 290.64 332.32Z" fill="#6C63FF"/>
<path opacity="0.3" d="M338.433 332.32C340.241 332.32 341.706 330.855 341.706 329.048C341.706 327.241 340.241 325.776 338.433 325.776C336.625 325.776 335.159 327.241 335.159 329.048C335.159 330.855 336.625 332.32 338.433 332.32Z" fill="#6C63FF"/>
<path opacity="0.3" d="M386.226 332.32C388.034 332.32 389.499 330.855 389.499 329.048C389.499 327.241 388.034 325.776 386.226 325.776C384.418 325.776 382.952 327.241 382.952 329.048C382.952 330.855 384.418 332.32 386.226 332.32Z" fill="#6C63FF"/>
<path opacity="0.3" d="M434.019 332.32C435.826 332.32 437.292 330.855 437.292 329.048C437.292 327.241 435.826 325.776 434.019 325.776C432.211 325.776 430.745 327.241 430.745 329.048C430.745 330.855 432.211 332.32 434.019 332.32Z" fill="#6C63FF"/>
<path opacity="0.3" d="M481.812 332.32C483.619 332.32 485.085 330.855 485.085 329.048C485.085 327.241 483.619 325.776 481.812 325.776C480.004 325.776 478.538 327.241 478.538 329.048C478.538 330.855 480.004 332.32 481.812 332.32Z" fill="#6C63FF"/>
<path opacity="0.3" d="M529.604 332.32C531.412 332.32 532.878 330.855 532.878 329.048C532.878 327.241 531.412 325.776 529.604 325.776C527.797 325.776 526.331 327.241 526.331 329.048C526.331 330.855 527.797 332.32 529.604 332.32Z" fill="#6C63FF"/>
<path d="M156.931 455.226C154.967 451.62 157.193 447.203 159.74 443.99C162.286 440.777 165.377 437.446 165.311 433.33C165.213 427.441 158.961 423.96 153.965 420.838C150.255 418.52 146.835 415.767 143.778 412.639C142.499 411.436 141.439 410.018 140.649 408.451C139.614 406.147 139.64 403.53 139.706 401.01C139.929 392.599 140.345 384.204 140.956 375.823" stroke="#3F3D56" stroke-width="4" stroke-miterlimit="10"/>
<path d="M131.457 375.378C131.526 373.84 131.983 372.344 132.784 371.029C133.585 369.714 134.705 368.621 136.04 367.853L138.095 371.917L138.03 366.996C139.013 366.708 140.037 366.584 141.061 366.629C142.869 366.719 144.611 367.342 146.065 368.42C147.52 369.497 148.622 370.981 149.234 372.685C149.846 374.388 149.939 376.234 149.502 377.99C149.065 379.746 148.118 381.334 146.779 382.553C145.44 383.771 143.771 384.566 141.981 384.837C140.19 385.108 138.36 384.844 136.72 384.076C135.081 383.309 133.705 382.073 132.767 380.525C131.829 378.977 131.371 377.186 131.45 375.378H131.457Z" fill="#57B894"/>
<path d="M147.844 437.538C148.808 439.405 150.384 440.884 152.309 441.728C154.235 442.571 156.391 442.728 158.418 442.171C160.445 441.614 162.219 440.378 163.443 438.67C164.666 436.961 165.265 434.884 165.139 432.787C165.012 430.69 164.169 428.7 162.749 427.15C161.329 425.601 159.42 424.586 157.341 424.276C155.262 423.966 153.139 424.38 151.329 425.448C149.519 426.517 148.131 428.174 147.399 430.143L153.14 434.809L146.822 433.35C146.825 434.807 147.175 436.243 147.844 437.538Z" fill="#57B894"/>
<path d="M152.381 419.706C154.664 419.867 156.925 419.169 158.719 417.748C160.512 416.328 161.71 414.288 162.075 412.029C162.44 409.771 161.947 407.458 160.692 405.545C159.437 403.632 157.512 402.257 155.294 401.691L155.347 405.473L153.265 401.357C152.059 401.298 150.854 401.478 149.718 401.886C148.582 402.294 147.538 402.922 146.645 403.734C145.753 404.547 145.03 405.527 144.518 406.619C144.005 407.712 143.714 408.894 143.66 410.1C143.607 411.159 143.739 412.22 144.053 413.234C144.605 415.039 145.702 416.629 147.192 417.788C148.683 418.946 150.495 419.616 152.381 419.706Z" fill="#57B894"/>
<path d="M130.075 404.871C131.486 404.923 132.889 404.649 134.176 404.069C135.463 403.49 136.599 402.621 137.494 401.531C138.39 400.441 139.022 399.159 139.341 397.785C139.66 396.411 139.657 394.981 139.332 393.609C139.007 392.236 138.37 390.956 137.469 389.87C136.568 388.784 135.429 387.92 134.14 387.347C132.85 386.773 131.446 386.505 130.036 386.563C128.625 386.62 127.248 387.003 126.01 387.681L127.633 392.13L124.294 388.924C122.505 390.562 121.438 392.842 121.329 395.265C121.285 396.116 121.362 396.968 121.558 397.797C122.016 399.741 123.095 401.483 124.632 402.759C126.169 404.035 128.08 404.777 130.075 404.871Z" fill="#57B894"/>
<path opacity="0.1" d="M132.694 377.826C134.815 378.055 136.878 378.716 139.005 378.847C141.133 378.977 143.47 378.467 144.819 376.818C145.539 375.928 145.906 374.796 146.515 373.827C147.096 372.922 147.892 372.173 148.832 371.648C149.387 372.807 149.691 374.069 149.726 375.352C149.761 376.636 149.526 377.912 149.036 379.099C148.545 380.286 147.811 381.356 146.88 382.241C145.949 383.126 144.842 383.805 143.632 384.235C142.421 384.665 141.134 384.835 139.853 384.736C138.572 384.636 137.327 384.268 136.197 383.657C135.068 383.045 134.08 382.203 133.297 381.185C132.514 380.167 131.954 378.996 131.653 377.747C132.002 377.76 132.349 377.786 132.694 377.826Z" fill="black"/>
<path opacity="0.1" d="M130.075 404.871C131.66 404.952 133.238 404.619 134.656 403.907C136.074 403.195 137.282 402.127 138.163 400.808C139.044 399.489 139.567 397.964 139.682 396.382C139.796 394.8 139.498 393.216 138.816 391.784C138.086 392.274 137.459 392.9 136.969 393.629C136.315 394.617 135.915 395.756 135.149 396.665C133.715 398.347 131.273 398.897 129.054 398.799C126.835 398.7 124.694 398.066 122.507 397.863C122.199 397.863 121.892 397.817 121.577 397.811C122.037 399.749 123.115 401.485 124.647 402.759C126.18 404.032 128.085 404.773 130.075 404.871Z" fill="black"/>
<path opacity="0.1" d="M152.381 419.706C153.954 419.788 155.522 419.463 156.933 418.762C158.344 418.062 159.551 417.01 160.437 415.708C161.322 414.405 161.857 412.897 161.99 411.328C162.122 409.758 161.848 408.182 161.193 406.749C160.431 407.247 159.765 407.879 159.229 408.614C158.515 409.622 158.07 410.78 157.265 411.71C155.713 413.437 153.108 414.046 150.764 413.987C148.42 413.928 146.292 413.385 144.033 413.208C144.582 415.021 145.68 416.619 147.174 417.782C148.669 418.946 150.488 419.618 152.381 419.706Z" fill="black"/>
<path opacity="0.1" d="M147.844 437.538C148.838 439.758 150.674 441.493 152.948 442.361C155.222 443.229 157.747 443.158 159.969 442.164C162.19 441.171 163.926 439.336 164.794 437.063C165.662 434.79 165.592 432.266 164.598 430.045C163.839 430.539 163.16 431.143 162.581 431.838C161.704 432.905 161.128 434.115 160.119 435.11C158.24 436.955 155.209 437.728 152.505 437.787C150.948 437.793 149.392 437.71 147.844 437.538Z" fill="black"/>
<path d="M170.791 451.077C170.791 451.077 163.537 450.855 161.35 449.297C159.164 447.74 150.22 445.888 149.657 448.381C149.094 450.874 138.757 460.814 146.94 460.853C155.124 460.893 165.966 459.577 168.153 458.236C170.339 456.894 170.791 451.077 170.791 451.077Z" fill="#656380"/>
<path opacity="0.2" d="M146.796 459.983C154.987 460.048 165.822 458.714 168.002 457.366C169.665 456.351 170.326 452.719 170.549 451.051H170.791C170.791 451.051 170.333 456.894 168.172 458.249C166.012 459.604 155.15 460.919 146.96 460.866C144.596 460.866 143.785 460.009 143.83 458.766C144.138 459.499 145.035 459.97 146.796 459.983Z" fill="black"/>
<path d="M627.835 370.529C627.359 371.896 627.178 373.348 627.305 374.789C627.623 376.229 628.299 377.566 629.269 378.676C629.755 379.45 630.511 380.017 631.39 380.267C631.846 380.309 632.305 380.226 632.717 380.027C633.129 379.827 633.478 379.518 633.728 379.134C634.219 378.361 634.512 377.477 634.579 376.563C634.763 374.127 634.642 371.678 634.219 369.273C633.944 367.251 633.872 365.026 633.335 363.069C631.947 363.069 630.343 362.814 629.57 364.136C628.582 365.857 628.346 368.606 627.835 370.529Z" fill="#FFC0C6"/>
<path d="M635.43 334.506C635.089 335.468 634.611 336.384 634.297 337.359C633.997 338.374 633.778 339.411 633.642 340.461C632.671 346.623 631.359 352.726 629.714 358.744C629.129 360.512 628.798 362.354 628.732 364.215L632.477 364.084C632.829 364.028 633.19 364.107 633.485 364.306C633.806 364.594 634.022 365.229 634.428 365.065C635.13 361.47 635.622 357.836 635.901 354.183C636.052 351.565 635.98 349 636.15 346.415C636.477 341.266 638.009 335.396 636.006 330.416C636.081 331.804 635.885 333.193 635.43 334.506Z" fill="#3F3D56"/>
<path opacity="0.1" d="M635.43 334.506C635.089 335.468 634.611 336.384 634.297 337.359C633.997 338.374 633.778 339.411 633.642 340.461C632.671 346.623 631.359 352.726 629.714 358.744C629.129 360.512 628.798 362.354 628.732 364.215L632.477 364.084C632.829 364.028 633.19 364.107 633.485 364.306C633.806 364.594 634.022 365.229 634.428 365.065C635.13 361.47 635.622 357.836 635.901 354.183C636.052 351.565 635.98 349 636.15 346.415C636.477 341.266 638.009 335.396 636.006 330.416C636.081 331.804 635.885 333.193 635.43 334.506Z" fill="black"/>
<path d="M640.085 303.658C639.168 304.444 638.854 305.7 638.585 306.878L636.412 316.445C635.914 318.631 635.417 320.816 635.102 323.034C633.727 332.3 635.318 341.828 633.793 351.068C633.351 353.128 633.058 355.216 632.916 357.317C632.85 361.165 634.336 364.993 633.721 368.789C633.514 369.462 633.514 370.183 633.721 370.857C634.035 371.511 635.096 371.72 635.39 371.086C635.443 370.97 635.476 370.846 635.489 370.719L637.754 356.434C638.297 353.038 638.834 349.589 638.461 346.167C638.206 343.837 637.525 341.508 637.898 339.191C638.144 338.043 638.479 336.917 638.9 335.821C641.086 329.277 640.785 322.164 639.554 315.398C639.306 314.415 639.235 313.396 639.345 312.388C639.646 310.732 640.929 309.463 641.793 308.023C642.448 306.937 643.574 304.548 643.103 303.24C642.618 301.708 641.008 302.867 640.085 303.658Z" fill="#3F3D56"/>
<path d="M643.712 441.981C643.41 441.949 643.106 442.004 642.834 442.138C642.605 442.305 642.426 442.531 642.317 442.793C641.59 444.291 641.08 446.025 639.698 446.994C639.003 447.428 638.239 447.742 637.44 447.923L631.286 449.677C630.493 449.899 629.59 450.226 629.321 450.985C629.053 451.744 629.629 452.674 630.369 453.119C631.47 453.643 632.689 453.868 633.904 453.773L642.815 453.904C643.661 453.964 644.512 453.878 645.329 453.649C646.37 453.282 647.247 452.451 648.34 452.34C649.231 452.242 650.088 452.628 650.959 452.824C652.773 453.223 654.652 452.824 656.452 452.366C656.779 452.321 657.084 452.175 657.323 451.947C657.518 451.664 657.613 451.323 657.591 450.979C657.663 449.454 657.689 447.936 657.683 446.398C657.683 445.017 657.519 443.414 656.373 442.655C655.846 442.353 655.258 442.172 654.652 442.125C650.998 441.66 647.391 442.007 643.712 441.981Z" fill="#575A88"/>
<path d="M667.287 461.357C667.036 461.952 666.717 462.516 666.338 463.039L662.587 468.719C661.055 471.029 659.47 473.503 659.366 476.271C661.866 477.233 664.551 477.62 667.222 477.403C668.559 477.369 669.86 476.963 670.98 476.231C672.59 475.047 673.225 472.959 673.749 471.049C673.786 470.794 673.914 470.562 674.109 470.394C674.443 470.165 674.895 470.394 675.301 470.309C676.132 470.205 676.42 469.157 676.479 468.346C676.645 465.758 676.424 463.16 675.825 460.637C675.779 460.322 675.64 460.028 675.425 459.793C675.176 459.607 674.878 459.496 674.568 459.473C672.695 459.152 670.823 458.779 668.944 458.504C666.462 458.105 667.988 459.571 667.287 461.357Z" fill="#575A88"/>
<path d="M636.307 360.144C634.494 362.448 633.911 365.523 634.048 368.448C634.186 371.374 634.991 374.227 635.666 377.08C636.772 381.723 637.572 386.434 638.062 391.182C638.139 392.51 638.359 393.826 638.716 395.108C639.037 396.103 639.535 397.032 639.823 398.033C640.176 399.25 640.209 400.546 640.536 401.77C640.979 403.091 641.544 404.369 642.226 405.585C645.218 411.696 645.859 418.672 645.912 425.478C645.912 427.316 645.912 429.149 646.082 430.974C646.461 434.678 647.607 438.827 645.388 441.811C645.951 443.84 648.661 444.226 650.73 443.957C653.161 443.655 655.539 443.016 657.794 442.06C657.14 440.672 656.184 439.056 656.23 437.479C656.368 436.246 656.681 435.038 657.159 433.893C658.344 430.294 658.469 426.446 658.534 422.657C658.582 421.488 658.565 420.317 658.482 419.15C658.366 418.072 658.191 417.002 657.958 415.943L655.424 403.255C654.979 401.026 654.92 398.738 655.247 396.489C655.724 393.822 656.628 391.25 657.925 388.872C660.956 382.753 662.004 375.856 662.6 369.051C662.92 365.334 662.999 361.198 660.636 358.312C659.174 356.646 657.197 355.517 655.018 355.106C652.859 354.712 650.655 354.626 648.471 354.85C644.091 355.217 639.024 356.702 636.307 360.144Z" fill="#3F3D56"/>
<path d="M636.837 361.774C635.999 364.588 638.081 367.329 639.155 370.065C639.77 371.642 640.078 373.337 641.021 374.77C642.186 376.517 644.19 377.551 645.453 379.233C646.717 380.914 647.083 382.884 648.072 384.631C649.061 386.378 650.691 387.831 651.607 389.65C652.995 392.366 652.792 395.625 653.768 398.517C654.462 400.592 655.765 402.444 656.269 404.583C656.491 405.545 656.55 406.546 656.799 407.489C657.382 409.74 658.979 411.703 659.143 414.033C659.248 415.557 658.737 417.233 659.542 418.528C660.027 419.32 660.904 419.785 661.506 420.491C661.947 421.134 662.264 421.853 662.443 422.612L663.752 426.898C665.016 431.06 665.16 435.359 666.371 439.54C667.582 443.722 668.44 448.244 667.026 452.366C666.456 454.074 665.507 455.828 665.985 457.562C666.188 458.175 666.523 458.736 666.967 459.207C667.41 459.677 667.951 460.045 668.551 460.284C669.759 460.748 671.041 460.989 672.335 460.997C674.07 461.089 675.936 460.997 677.37 460.036C676.666 454.779 676.386 449.475 676.532 444.173C676.695 440.718 677.186 437.276 677.186 433.814C677.114 431.623 676.906 429.437 676.564 427.271C676.173 424.029 675.48 420.83 674.496 417.717C673.947 416.325 673.488 414.9 673.121 413.45C672.911 412.462 672.846 411.448 672.702 410.447C672.558 409.445 672.342 408.483 672.126 407.456L671.248 403.412C671.052 402.522 670.515 401.743 670.476 400.834L670.207 394.944C669.775 385.299 669.356 375.496 671.68 366.152C670.325 362.134 668.04 357.9 664.145 356.218C662.542 355.578 660.83 355.251 659.104 355.256C651.149 355.008 644.026 358.417 636.837 361.774Z" fill="#3F3D56"/>
<path d="M642.782 295.812C643.155 296.056 643.498 296.344 643.803 296.67C644.167 297.115 644.454 297.617 644.654 298.155C645.395 299.947 645.838 301.848 645.964 303.783C650.212 300.801 654.12 297.363 657.617 293.529C656.053 293.646 654.612 292.527 653.866 291.153C653.209 289.729 652.831 288.192 652.753 286.625C652.714 286.33 648.674 288.045 648.347 288.221C646.907 289.007 645.558 289.943 644.15 290.78C643.474 291.193 642.777 291.571 642.062 291.912C641.407 292.213 640.373 292.351 639.829 292.783C638.382 293.947 641.892 295.191 642.782 295.812Z" fill="#FFC0C6"/>
<path d="M642.127 300.243C641.964 301.505 642.18 302.795 641.99 304.051C641.721 305.864 640.68 307.441 639.895 309.103C637.747 313.769 637.931 319.115 637.833 324.245C637.734 329.86 637.269 335.455 636.798 341.05L635.94 351.291C635.79 353.057 635.639 354.837 635.286 356.585C635.099 357.32 635.009 358.077 635.017 358.836C635.128 359.748 635.399 360.634 635.816 361.453C636.206 362.543 636.829 363.535 637.643 364.359C638.057 364.762 638.589 365.025 639.161 365.108C639.734 365.192 640.318 365.092 640.831 364.823L641.604 362.5C641.632 363.43 642.008 364.314 642.658 364.98C643.308 365.645 644.184 366.042 645.113 366.093C645.78 366.069 646.441 365.955 647.077 365.752L653.133 364.11C654.443 363.814 655.716 363.375 656.93 362.801C659.549 361.407 661.303 358.79 662.246 355.989C663.189 353.188 663.379 350.211 663.49 347.266C663.732 340.467 663.549 333.603 662.109 326.98C661.506 324.199 660.681 321.464 660.184 318.663C659.605 314.885 659.321 311.067 659.333 307.244L659.123 297.782C659.18 296.608 658.981 295.436 658.541 294.347C658.309 293.809 657.913 293.358 657.41 293.059C656.907 292.759 656.322 292.626 655.738 292.678C653.925 293.018 653.499 295.354 652.517 296.918C651.679 298.26 650.272 299.124 648.917 299.942C648.026 300.478 646.913 301.028 645.997 300.53C645.08 300.033 645.087 298.43 644.144 298.018C642.893 297.344 642.239 299.274 642.127 300.243Z" fill="#F2F2F2"/>
<path d="M650.802 302.899C649.087 307.284 648.183 311.936 647.319 316.569C646.409 321.562 645.591 326.686 646.422 331.692C647.993 341.161 655.182 348.81 657.631 358.09C658.056 359.699 658.338 361.361 658.94 362.919C659.876 365.536 661.559 367.761 663.215 369.967C664.106 371.151 665.422 372.479 666.823 372.002C667.864 371.642 668.322 370.457 669.114 369.685C670.22 368.605 671.916 368.416 673.461 368.488C675.006 368.56 676.591 368.841 678.09 368.488C679.589 368.134 681.016 366.793 680.866 365.216C680.768 364.228 680.074 363.423 679.556 362.598C678.051 360.347 677.475 357.612 677.036 354.935C674.515 339.499 675.641 323.63 672.964 308.219C672.63 306.256 672.211 304.293 671.104 302.683C670.56 301.999 670.055 301.285 669.592 300.543C669.173 299.739 668.99 298.803 668.44 298.076C667.654 297.043 666.305 296.656 665.068 296.257C663.385 295.714 661.749 295.033 660.177 294.222C658.986 293.607 657.297 291.906 656.092 292.717C654.887 293.529 653.977 296.362 653.329 297.592C652.387 299.312 651.544 301.084 650.802 302.899Z" fill="#3F3D56"/>
<path d="M655.987 366.695C655.058 366.911 654.069 366.616 653.133 366.826C651.594 367.179 650.71 368.743 650.016 370.156C649.761 370.593 649.602 371.08 649.552 371.583C649.534 371.834 649.597 372.084 649.731 372.297C649.865 372.51 650.064 372.675 650.298 372.767C650.558 372.805 650.823 372.771 651.064 372.668C651.305 372.566 651.514 372.398 651.666 372.185C651.966 371.757 652.318 371.368 652.714 371.027C653.801 370.3 655.28 371.073 656.125 372.067C656.969 373.062 657.604 374.312 658.744 374.907C659.403 375.202 660.111 375.374 660.832 375.418C661.589 375.542 662.36 375.542 663.117 375.418C663.497 375.357 663.858 375.206 664.169 374.979C664.479 374.751 664.732 374.453 664.904 374.109C665.071 373.657 665.145 373.176 665.12 372.695L665.232 366.152C665.277 365.769 665.199 365.381 665.009 365.046C664.78 364.78 664.477 364.588 664.138 364.496C662.921 364.031 660.282 362.454 659.058 363.246C657.689 364.215 657.951 366.243 655.987 366.695Z" fill="#FFC0C6"/>
<path d="M643.411 295.708C649.818 295.708 655.012 290.516 655.012 284.112C655.012 277.708 649.818 272.516 643.411 272.516C637.003 272.516 631.809 277.708 631.809 284.112C631.809 290.516 637.003 295.708 643.411 295.708Z" fill="#FFC0C6"/>
<path d="M642.271 282.849C642.184 282.431 641.982 282.045 641.688 281.735C641.395 281.424 641.021 281.2 640.608 281.089C640.287 281.064 639.968 281.018 639.653 280.951C638.559 280.578 638.585 278.91 637.649 278.242C636.936 277.738 635.954 278 635.174 278.38C634.395 278.759 633.61 279.27 632.746 279.224C632.205 279.154 631.702 278.913 631.308 278.536C630.915 278.159 630.652 277.666 630.559 277.13C630.397 276.048 630.604 274.944 631.148 273.995C632.89 270.579 636.536 268.623 640.065 267.131C641.594 266.42 643.217 265.929 644.884 265.672C646.563 265.419 648.278 265.784 649.709 266.699C650.16 267.013 650.553 267.393 651.018 267.687C651.475 267.956 651.947 268.199 652.432 268.413C657.094 270.75 659.523 276.613 658.246 281.671C657.801 283.431 656.937 285.087 656.668 286.873C656.631 287.358 656.507 287.833 656.302 288.274C655.706 289.321 654.259 289.419 653.028 289.386C652.7 289.415 652.372 289.337 652.092 289.164C651.836 288.908 651.673 288.574 651.627 288.215C651.143 286.252 650.383 284.243 648.792 282.98C647.941 282.326 646.566 281.985 645.872 282.816C645.595 283.255 645.375 283.728 645.218 284.223C644.877 284.923 643.83 285.715 642.985 285.532C641.8 285.251 642.553 283.942 642.271 282.849Z" fill="#3F3D56"/>
<path opacity="0.1" d="M670.842 298.332C669.448 298.168 669.179 305.471 667.772 305.478C667.372 305.478 667.444 303.94 667.117 304.169C666.79 304.398 667.962 309.404 667.772 309.796C667.058 311.269 668.479 305.013 667.772 306.485C666.836 308.409 667.261 309.037 666.777 311.125C665.703 315.705 660.354 319.03 661.441 323.597C662.707 328.596 663.63 333.674 664.204 338.799C664.396 340.434 664.424 342.085 664.289 343.726C663.916 347.286 662.285 350.577 660.642 353.764C659.202 356.552 657.735 359.326 656.563 362.232C656.19 362.938 656.074 363.753 656.236 364.535C656.721 366.008 658.672 366.165 660.164 366.59C663.222 367.46 665.834 370.516 668.937 369.803C670.325 365.589 670.161 361.146 671.373 356.872C672.617 352.495 675.523 348.686 676.466 344.236C676.794 342.396 676.951 340.53 676.938 338.661L677.396 318.015C677.456 316.788 677.414 315.558 677.271 314.338C677.046 313.084 676.715 311.852 676.283 310.654L673.887 303.456C673.258 301.532 672.813 298.567 670.842 298.332Z" fill="black"/>
<path d="M671.838 298.332C670.44 298.168 669.035 298.089 667.628 298.096C667.217 298.027 666.794 298.114 666.444 298.341C666.094 298.567 665.841 298.916 665.736 299.32L663.595 303.724C662.593 305.617 661.8 307.614 661.231 309.679C660.158 314.259 661.349 319.017 662.436 323.584C663.702 328.582 664.625 333.661 665.199 338.785C665.391 340.421 665.419 342.072 665.284 343.713C664.911 347.273 663.281 350.564 661.637 353.751C660.197 356.539 658.731 359.313 657.559 362.219C657.182 362.924 657.066 363.74 657.231 364.522C657.716 365.994 659.667 366.152 661.159 366.577C664.217 367.447 666.829 370.503 669.932 369.79C671.32 365.576 671.157 361.132 672.368 356.859C673.612 352.482 676.519 348.673 677.461 344.223C677.789 342.383 677.947 340.517 677.933 338.648L678.385 318.002C678.451 316.775 678.41 315.545 678.26 314.325C678.04 313.071 677.711 311.838 677.278 310.64L674.882 303.442C674.253 301.532 673.808 298.567 671.838 298.332Z" fill="#3F3D56"/>
</g>
<defs>
<clipPath id="clip0_119_3">
<rect width="745" height="485" fill="white"/>
</clipPath>
</defs>
</svg>
