<svg width="663" height="522" viewBox="0 0 663 522" fill="none" xmlns="http://www.w3.org/2000/svg">
<path d="M310.943 121.11H454.995C458.026 121.11 460.485 118.739 460.485 115.817V37.0219C460.485 34.0996 458.026 31.7289 454.995 31.7289H310.943C307.909 31.7289 305.45 34.0996 305.45 37.0219V115.817C305.45 118.739 307.909 121.11 310.943 121.11" fill="#4D93FF"/>
<path d="M305.45 64.032H460.485V48.6078H305.45V64.032" fill="#0046B3"/>
<path d="M424.976 103.961H447.771C449.22 103.961 450.394 105.096 450.394 106.493C450.394 107.889 449.22 109.021 447.771 109.021H424.976C423.524 109.021 422.349 107.889 422.349 106.493C422.349 105.096 423.524 103.961 424.976 103.961Z" fill="#D1F5FF"/>
<path d="M389.921 103.961H412.713C414.162 103.961 415.34 105.096 415.34 106.493C415.34 107.889 414.162 109.021 412.713 109.021H389.921C388.469 109.021 387.295 107.889 387.295 106.493C387.295 105.096 388.469 103.961 389.921 103.961Z" fill="#D1F5FF"/>
<path d="M354.864 103.961H377.659C379.108 103.961 380.286 105.096 380.286 106.493C380.286 107.889 379.108 109.021 377.659 109.021H354.864C353.415 109.021 352.241 107.889 352.241 106.493C352.241 105.096 353.415 103.961 354.864 103.961Z" fill="#D1F5FF"/>
<path d="M319.81 103.961H342.605C344.054 103.961 345.228 105.096 345.228 106.493C345.228 107.889 344.054 109.021 342.605 109.021H319.81C318.361 109.021 317.187 107.889 317.187 106.493C317.187 105.096 318.361 103.961 319.81 103.961Z" fill="#D1F5FF"/>
<path d="M448.818 36.2643C450.417 36.2643 451.716 37.5158 451.716 39.0575V40.0381C451.716 41.5799 450.417 42.8281 448.818 42.8281C447.219 42.8281 445.924 41.5799 445.924 40.0381V39.0575C445.924 37.5158 447.219 36.2643 448.818 36.2643Z" fill="#D1F5FF"/>
<path d="M442.582 39.5478C442.582 41.3605 441.056 42.8281 439.175 42.8281H427.11C425.23 42.8281 423.708 41.3605 423.708 39.5478C423.708 37.7351 425.23 36.2643 427.11 36.2643H439.175C441.056 36.2643 442.582 37.7351 442.582 39.5478Z" fill="#D1F5FF"/>
<path d="M444.164 72.3288H428.579C426.083 72.3288 424.059 74.2834 424.059 76.6896V89.6431C424.059 92.0493 426.083 94.0007 428.579 94.0007H444.164C446.66 94.0007 448.684 92.0493 448.684 89.6431V76.6896C448.684 74.2834 446.66 72.3288 444.164 72.3288Z" fill="#FFBD73"/>
<path d="M63.9017 179.417C70.3411 171.624 82.1134 170.338 90.1979 176.547C98.2952 182.762 99.6288 194.113 93.1894 201.905C86.74 209.711 74.9671 210.998 66.8702 204.779C58.7856 198.573 57.4523 187.223 63.9017 179.417ZM48.2473 167.396C45.0075 171.318 42.721 175.676 41.3579 180.204L45.4207 181.346C44.1289 185.617 43.7605 190.061 44.2591 194.4L40.0644 194.858C40.6262 199.641 42.1355 204.321 44.5813 208.611L45.41 208.179L48.2911 206.656C50.4227 210.408 53.3604 213.83 57.0512 216.665L54.4113 219.858C58.4788 222.984 62.998 225.187 67.7079 226.49L68.8924 222.571C73.3115 223.829 77.9214 224.184 82.4222 223.703L82.8973 227.748C87.8589 227.206 92.7234 225.738 97.1743 223.38L97.1619 223.371L96.5831 222.335L95.1441 219.803C99.0369 217.749 102.577 214.93 105.517 211.372L108.832 213.917C112.071 209.995 114.367 205.627 115.718 201.086L111.655 199.944C112.959 195.683 113.318 191.252 112.819 186.913L117.014 186.455C116.452 181.672 114.931 176.982 112.485 172.692L108.774 174.65C106.643 170.896 103.718 167.483 100.027 164.648L102.667 161.455C98.5996 158.332 94.0684 156.116 89.3581 154.817L88.1737 158.732C83.7549 157.474 79.1567 157.129 74.6562 157.61L74.1811 153.565C69.2072 154.097 64.3554 155.575 59.9038 157.932L59.9189 157.965L61.2575 160.316L61.9347 161.509C58.0415 163.564 54.4909 166.396 51.5613 169.941L48.2473 167.396Z" stroke="#3D5A80" stroke-width="3" stroke-miterlimit="10"/>
<path d="M364.845 367.05C372.276 358.057 385.86 356.573 395.188 363.737C404.533 370.911 406.072 384.009 398.641 393.002C391.2 402.011 377.612 403.494 368.271 396.318C358.939 389.154 357.4 376.059 364.845 367.05V367.05ZM346.777 353.18C343.04 357.706 340.4 362.731 338.828 367.959L343.518 369.279C342.026 374.204 341.601 379.332 342.177 384.342L337.335 384.871C337.984 390.389 339.724 395.789 342.548 400.74L343.505 400.243L346.831 398.482C349.29 402.814 352.679 406.762 356.938 410.032L353.89 413.719C358.585 417.322 363.801 419.867 369.234 421.37L370.603 416.851C375.702 418.299 381.022 418.712 386.214 418.157L386.763 422.825C392.488 422.199 398.102 420.506 403.238 417.783L403.225 417.774L402.555 416.574L400.896 413.658C405.389 411.284 409.475 408.033 412.867 403.927L416.692 406.862C420.429 402.336 423.079 397.295 424.638 392.057L419.95 390.738C421.456 385.822 421.868 380.71 421.292 375.701L426.133 375.172C425.484 369.653 423.731 364.24 420.907 359.289L416.625 361.547C414.166 357.219 410.79 353.28 406.53 350.01L409.578 346.323C404.884 342.717 399.655 340.162 394.221 338.659L392.853 343.181C387.754 341.73 382.447 341.33 377.254 341.885L376.706 337.217C370.964 337.833 365.367 339.537 360.231 342.259L360.248 342.294L361.793 345.01L362.573 346.384C358.079 348.755 353.984 352.026 350.601 356.115L346.777 353.18Z" stroke="#293241" stroke-width="3" stroke-miterlimit="10"/>
<path d="M301.826 35.9899C301.826 32.0677 305.125 28.8874 309.193 28.8874H336.412C336.469 28.4616 336.549 28.0391 336.549 27.5972C336.549 22.1881 332.163 17.7273 326.649 17.3338C326.742 16.6564 326.809 15.9726 326.809 15.2694C326.809 6.83805 319.716 2.85505e-05 310.97 2.85505e-05C304.406 2.85505e-05 298.775 3.84805 296.369 9.33136C294.415 7.65088 291.845 6.62196 289.018 6.62196C282.905 6.62196 277.95 11.4021 277.95 17.2951H275.882C270.004 17.2951 265.196 21.93 265.196 27.5972C265.196 33.2644 270.004 37.9026 275.882 37.9026H301.826V35.9899" fill="#CCE0FF"/>
<path d="M146.011 85.0013C149.801 63.3551 184.382 53.5819 183.705 67.7095L342.227 68.6061C353.208 68.6674 362.111 78.189 362.121 89.8846L362.449 491.805C362.459 503.923 353.402 513.828 342.21 513.919L180.384 515.257C179.38 517.292 177.499 519.141 174.537 520.686C155.979 521.07 147.078 512.232 143.826 502.242C142.767 499.562 142.191 496.601 142.217 493.476C142.865 488.244 144.838 90.0782 146.011 85.0013" fill="#408BFF"/>
<path d="M176.267 520.75L362.021 519.595C373.614 519.524 382.989 509.351 382.969 496.884L382.27 83.5428C382.25 71.5214 373.025 61.7579 361.656 61.7224L179.51 61.1515C168.053 61.116 158.683 70.8666 158.587 82.9428L155.286 498.194C155.186 510.718 164.582 520.824 176.267 520.75" fill="white"/>
<path d="M173.703 517.744C174.474 517.844 175.264 517.892 176.05 517.886L361.746 516.531C371.707 516.457 379.851 507.539 379.834 496.659L379.191 83.7723C379.175 73.2766 371.161 64.7129 361.392 64.671L179.258 63.9066C178.973 63.9066 178.685 63.913 178.402 63.9259C173.819 64.1291 169.536 66.1418 166.335 69.5866C163.062 73.1088 161.242 77.7729 161.203 82.7337L157.945 498.404C157.868 508.255 164.619 516.57 173.703 517.744" fill="#293241"/>
<path d="M167.59 84.8201L164.458 499.045L373.654 497.839L373.122 84.8201H167.59Z" fill="#005CEA"/>
<path d="M239.715 296.763H291.42C295.797 296.763 299.374 293.312 299.374 289.093C299.374 284.878 295.797 281.426 291.42 281.426H239.715C235.34 281.426 231.76 284.878 231.76 289.093C231.76 293.312 235.34 296.763 239.715 296.763Z" fill="#EE6C4D"/>
<path d="M200.38 239.833H334.076C338.449 239.833 342.029 236.385 342.029 232.167C342.029 227.948 338.449 224.5 334.076 224.5H200.38C196.005 224.5 192.426 227.948 192.426 232.167C192.426 236.385 196.005 239.833 200.38 239.833Z" fill="white"/>
<path d="M200.38 264.535H334.076C338.449 264.535 342.029 261.083 342.029 256.864C342.029 252.649 338.449 249.198 334.076 249.198H200.38C196.005 249.198 192.426 252.649 192.426 256.864C192.426 261.083 196.005 264.535 200.38 264.535Z" fill="white"/>
<path d="M309.11 257.545C309.11 259.035 310.365 260.245 311.914 260.245C313.459 260.245 314.714 259.035 314.714 257.545C314.714 256.055 313.459 254.845 311.914 254.845C310.365 254.845 309.11 256.055 309.11 257.545Z" fill="#80B2FF"/>
<path d="M299.511 257.545C299.511 259.035 300.762 260.245 302.311 260.245C303.857 260.245 305.112 259.035 305.112 257.545C305.112 256.055 303.857 254.845 302.311 254.845C300.762 254.845 299.511 256.055 299.511 257.545Z" fill="#80B2FF"/>
<path d="M289.908 257.545C289.908 259.035 291.163 260.245 292.709 260.245C294.254 260.245 295.509 259.035 295.509 257.545C295.509 256.055 294.254 254.845 292.709 254.845C291.163 254.845 289.908 256.055 289.908 257.545Z" fill="#80B2FF"/>
<path d="M280.306 257.545C280.306 259.035 281.56 260.245 283.106 260.245C284.652 260.245 285.907 259.035 285.907 257.545C285.907 256.055 284.652 254.845 283.106 254.845C281.56 254.845 280.306 256.055 280.306 257.545Z" fill="#80B2FF"/>
<path d="M270.703 257.545C270.703 259.035 271.958 260.245 273.504 260.245C275.053 260.245 276.304 259.035 276.304 257.545C276.304 256.055 275.053 254.845 273.504 254.845C271.958 254.845 270.703 256.055 270.703 257.545Z" fill="#80B2FF"/>
<path d="M261.104 257.545C261.104 259.035 262.355 260.245 263.904 260.245C265.45 260.245 266.705 259.035 266.705 257.545C266.705 256.055 265.45 254.845 263.904 254.845C262.355 254.845 261.104 256.055 261.104 257.545Z" fill="#80B2FF"/>
<path d="M251.501 257.545C251.501 259.035 252.755 260.245 254.301 260.245C255.848 260.245 257.102 259.035 257.102 257.545C257.102 256.055 255.848 254.845 254.301 254.845C252.755 254.845 251.501 256.055 251.501 257.545Z" fill="#80B2FF"/>
<path d="M241.899 257.545C241.899 259.035 243.153 260.245 244.699 260.245C246.246 260.245 247.5 259.035 247.5 257.545C247.5 256.055 246.246 254.845 244.699 254.845C243.153 254.845 241.899 256.055 241.899 257.545Z" fill="#80B2FF"/>
<path d="M232.297 257.545C232.297 259.035 233.551 260.245 235.098 260.245C236.644 260.245 237.898 259.035 237.898 257.545C237.898 256.055 236.644 254.845 235.098 254.845C233.551 254.845 232.297 256.055 232.297 257.545Z" fill="#80B2FF"/>
<path d="M236.45 173.411C236.45 189.774 250.21 203.04 267.183 203.04C284.157 203.04 297.918 189.774 297.918 173.411C297.918 157.048 284.157 143.785 267.183 143.785C250.21 143.785 236.45 157.048 236.45 173.411Z" fill="white"/>
<path d="M267.14 172.221C264.139 172.221 261.368 170.811 259.598 168.66C258.294 167.102 257.521 165.099 257.521 162.873C257.521 157.758 261.83 153.529 267.14 153.529C272.523 153.529 276.833 157.758 276.833 162.873C276.833 165.099 276.067 167.102 274.755 168.66C272.988 170.811 270.218 172.221 267.14 172.221Z" fill="#005CEA"/>
<path d="M250.105 188.875C250.105 194.771 284.267 194.771 284.267 188.875L284.257 182.001C282.909 172.605 252.881 172.212 250.098 182.001L250.105 188.875" fill="#005CEA"/>
<path d="M329.583 257.384C329.583 256.861 330.041 256.419 330.587 256.419C331.129 256.419 331.59 256.861 331.59 257.384C331.59 257.748 331.38 258.029 331.089 258.19V259.761C331.089 260.045 330.878 260.245 330.587 260.245C330.292 260.245 330.041 260.045 330.041 259.761V258.19C329.794 258.029 329.583 257.748 329.583 257.384ZM332.588 255.452H328.539V255.042C328.539 253.936 329.228 253.049 330.573 253.049C331.922 253.049 332.588 253.997 332.588 255.042V255.452ZM326.95 255.452V260.89C326.95 261.828 334.18 261.828 334.18 260.89V255.452H333.705V255.042C333.705 253.378 332.3 252.023 330.573 252.023C328.85 252.023 327.445 253.378 327.445 255.042V255.452H326.95Z" fill="#4D4D4D"/>
<path d="M330.567 231.612C329.934 231.612 329.349 231.316 328.977 230.861C328.7 230.532 328.539 230.109 328.539 229.638C328.539 228.558 329.446 227.668 330.567 227.668C331.704 227.668 332.614 228.558 332.614 229.638C332.614 230.109 332.45 230.532 332.176 230.861C331.801 231.316 331.216 231.612 330.567 231.612Z" fill="#4D4D4D"/>
<path d="M326.973 235.124C326.973 236.369 334.22 236.369 334.22 235.124L334.18 233.673C333.896 231.692 327.559 231.608 326.97 233.673L326.973 235.124Z" fill="#4D4D4D"/>
<path d="M283.739 234.418H313.035C314.319 234.418 315.37 233.405 315.37 232.166C315.37 230.928 314.319 229.915 313.035 229.915H283.739C282.454 229.915 281.403 230.928 281.403 232.166C281.403 233.405 282.454 234.418 283.739 234.418Z" fill="#80B2FF"/>
<path d="M245.095 234.418H274.394C275.678 234.418 276.729 233.405 276.729 232.166C276.729 230.928 275.678 229.915 274.394 229.915H245.095C243.811 229.915 242.761 230.928 242.761 232.166C242.761 233.405 243.811 234.418 245.095 234.418Z" fill="#80B2FF"/>
<path d="M306.851 379.848V437.043C306.851 443.4 220.745 443.4 220.745 437.043V379.848H306.851Z" fill="white"/>
<path d="M253.168 401.453C253.168 406.755 257.929 411.052 263.797 411.052C269.669 411.052 274.43 406.755 274.43 401.453C274.43 396.15 269.669 391.851 263.797 391.851C257.929 391.851 253.168 396.15 253.168 401.453Z" fill="#005CEA"/>
<path d="M263.66 430.365H263.938C266.266 430.365 268.157 428.546 268.157 426.301V404.41H259.441V426.301C259.441 428.546 261.328 430.365 263.66 430.365Z" fill="#005CEA"/>
<path d="M228.292 375.774H237.007V371.923C237.007 358.579 249.026 347.725 263.797 347.725C278.573 347.725 290.591 358.579 290.591 371.923V375.774H299.307V371.923C299.307 354.241 283.377 339.852 263.797 339.852C244.221 339.852 228.292 354.241 228.292 371.923V375.774" fill="white"/>
<path d="M0 305.969C0.00167848 305.649 0.00234397 305.507 0.00234397 305.475C0.00234397 305.533 0 305.969 0 305.969Z" fill="#D9FFFF"/>
<path d="M0 305.969C0.00167848 305.649 0.00234397 305.507 0.00234397 305.475C0.00234397 305.533 0 305.969 0 305.969Z" fill="#D9FFFF"/>
<path d="M198.793 306.827C198.793 306.827 198.795 306.391 198.796 306.33C198.795 306.362 198.795 306.504 198.793 306.827Z" fill="#D9FFFF"/>
<path d="M198.793 306.827C198.793 306.827 198.795 306.391 198.796 306.33C198.795 306.362 198.795 306.504 198.793 306.827Z" fill="#D9FFFF"/>
<path d="M99.7645 260.938C77.759 283.661 42.6453 302.285 5.07063 310.22C5.05926 312.639 4.99703 326.041 4.71063 387.822C4.32854 470.232 85.687 510.506 98.3181 516.689C110.557 511.257 192.942 471.045 193.324 388.634C193.61 326.854 193.673 313.452 193.684 311.033C156.184 302.772 121.559 283.848 99.7645 260.938Z" fill="white"/>
<path d="M99.5671 269.876C76.8817 289.935 45.453 305.704 10.894 314.3L10.5531 387.805C10.3968 421.441 24.2576 451.87 51.7516 478.248C69.8163 495.578 88.8099 506.329 98.4476 511.164C98.8618 510.961 99.3168 510.732 99.7645 510.506V270.047C99.6993 269.989 99.6307 269.934 99.5671 269.876Z" fill="#80B2FF"/>
<path d="M99.7645 270.046V510.506C109.786 505.48 128.003 495.091 145.447 478.651C173.183 452.512 187.326 422.205 187.482 388.57L187.823 315.061C153.443 306.194 122.247 290.219 99.7645 270.046Z" fill="#4D93FF"/>
<path d="M169.009 343.726C142.699 347.635 106.872 370.768 84.2703 398.585C81.1002 385.47 66.8677 373.497 59.4219 370.878L36.8627 392.737C50.9483 398.856 66.3407 416.196 68.381 433.946L90.9165 437.313C100.418 419.218 124.956 375.942 173.774 352.67C172.833 349.129 169.387 344.229 169.009 343.726" fill="#0046B3"/>
<path d="M540.27 204.107L604.078 203.698L658.959 203.149L659.197 211.178C640.122 218.28 625.15 220.428 606.152 221.789C586.907 227.95 561.425 232.024 541.712 233.359C524.384 234.156 522.938 204.904 540.27 204.107" fill="#F7A594"/>
<path d="M568.558 202.366C560.897 202.224 538.232 199.908 524.102 201.515C511.321 206.575 514.49 228.07 520.348 231.45C520.332 232.057 545.148 238.733 570.258 231.631C574.036 227.367 572.758 206.62 568.558 202.366" fill="#112E59"/>
<path d="M573.641 232.476C569.663 233.844 565.925 234.708 563.128 233.605C561.472 233.683 559.625 201.483 561.285 201.408L571.727 200.928C575.043 200.776 576.957 232.325 573.641 232.476Z" fill="#1D498C"/>
<path d="M652.619 203.302C654.476 195.016 657.444 183.23 661.047 183.065C661.827 183.03 661.94 183.514 661.9 185.72C660.107 200.448 664.232 204.444 662.238 208.605C660.047 212.64 654.011 212.559 654.011 212.559C650.625 211.098 650.351 205.644 652.619 203.302Z" fill="#F7A594"/>
<path d="M656.919 201.515L660.679 190.819C660.679 190.819 663.132 191.232 662.617 194.061C662.098 196.886 661.472 199.931 661.472 199.931C661.472 199.931 664.413 206.056 662.075 208.588C659.732 211.124 655.701 208.646 656.919 201.515" fill="#F7A594"/>
<path d="M662.59 208.137L662.305 208.05C663.587 204.186 661.362 200.042 661.342 200L661.315 199.954L661.325 199.903C661.332 199.874 661.957 196.829 662.469 194.036C662.673 192.916 662.429 192.058 661.743 191.488C661.375 191.181 660.974 191.042 660.776 190.991L657.059 201.561L656.778 201.47L660.579 190.655L660.703 190.675C660.729 190.681 661.365 190.791 661.937 191.268C662.469 191.71 663.041 192.558 662.764 194.084C662.289 196.687 661.713 199.509 661.629 199.912C661.874 200.387 663.834 204.386 662.59 208.137" fill="#D97B69"/>
<path d="M655.272 196.415L654.978 196.344C655.112 195.834 658.277 183.858 660.997 182.929L661.097 183.2C658.528 184.081 655.302 196.292 655.272 196.415" fill="#D97B69"/>
<path d="M460.8 521.204H490.156C490.745 520.872 491.173 520.495 491.417 520.069C491.886 499.02 493.559 488.885 493.559 488.885L473.072 488.082L469.221 503.742C462.596 508.254 454.911 517.937 460.8 521.204" fill="#231F20"/>
<path d="M492.401 521.585H457.598C456.714 521.585 456.778 516.918 457.661 516.918L492.267 517.105C493.177 517.105 493.311 521.585 492.401 521.585" fill="#231F20"/>
<path d="M488.797 300.346C486.72 315.928 477.837 354.418 478.793 396.743C469.174 450.686 468.117 462.568 466.949 495.836L496.292 496.894C500.99 473.661 510.629 436.99 514.995 401.21C524.477 373.016 530.691 332.833 533.745 300.927C536.824 273.429 496.5 262.311 488.797 300.346Z" fill="#112E59"/>
<path d="M481.293 497.153L480.694 497.146C480.747 493.308 492.672 363.582 504.784 310.991L505.369 311.117C493.264 363.676 481.346 493.317 481.293 497.153Z" fill="#231F20"/>
<path d="M518.288 302.249C522.42 355.915 534.609 401.501 534.609 401.501C532.223 438.116 538.958 473.274 543.749 497.323L571.664 497.084C573.283 473.538 569.827 346.087 562.606 302.859C559.164 264.64 513.306 262.595 518.288 302.249Z" fill="#112E59"/>
<path d="M549.032 497.323C547.784 505.997 546.914 512.764 548.009 520.614L593.662 521.469C593.662 521.469 597.965 517.231 591.973 510.87C585.98 504.513 575.384 508.193 567.853 497.081L549.032 497.323Z" fill="#231F20"/>
<path d="M595.737 521.585H547.279C546.396 521.585 546.396 516.918 547.279 516.918L595.543 517.105C596.449 517.105 596.647 521.585 595.737 521.585" fill="#231F20"/>
<path d="M564.872 496.807L555.313 311.471L555.912 311.442L565.471 496.778L564.872 496.807" fill="#231F20"/>
<path d="M562.506 296.15L489.942 301.482C490.601 257.68 470.084 227.438 474.357 216.159C480.222 200.66 522.992 200.554 539.283 206.595C545.75 208.995 556.269 222.871 557.511 240.327C557.859 248.452 557.942 254.023 557.119 260.515C556.299 267.012 562.506 296.15 562.506 296.15" fill="#112E59"/>
<path d="M519.134 215.317C515.761 212.733 502.305 208.75 498.725 205.924L499.534 183.407L512.764 182.165C516.601 182.472 520.439 183.359 523.738 184.613L526.716 199.441L527.372 202.657C528.87 205.821 525.903 209.637 519.134 215.317Z" fill="#F7A594"/>
<path d="M503.984 188.503C506.062 191.584 514.751 199.47 526.716 199.441L524.139 186.613L503.984 188.503Z" fill="#E6836F"/>
<path d="M533.267 158.842C534.304 163.28 536.442 173.018 536.094 177.504C535.562 184.333 528.944 191.906 523.176 192.899C516.494 193.557 507.49 191.638 502.602 187.59C499.882 184.516 494.616 177.224 492.193 170.84C487.138 157.526 496.898 145.853 509.277 143.156C521.657 140.46 530.035 145.011 533.267 158.842Z" fill="#F7A594"/>
<path d="M496.339 179.636C493.759 175.256 497.189 173.482 500.949 176.882C500.307 173.576 496.396 163.889 499.859 160.68C503.77 156.955 520.981 158.574 530.225 149.281C530.225 149.281 523.336 134.715 500.715 143.317C475.17 156.374 496.339 179.636 496.339 179.636" fill="#4D261C"/>
<path d="M499.541 175.473C501.498 177.766 501.579 180.808 499.725 182.266C497.871 183.723 494.783 183.049 492.829 180.756C490.872 178.463 490.792 175.421 492.645 173.963C494.499 172.502 497.587 173.179 499.541 175.473Z" fill="#F7A594"/>
<path d="M530.44 149.885C527.566 149.037 493.331 162.151 494.231 164.603C494.231 164.603 519.017 164.712 536.057 157.232C545.359 153.149 530.44 149.885 530.44 149.885" fill="#112E59"/>
<path d="M489.072 166.708L530.654 149.813L529.232 144.137L485.181 161.657C486.054 163.609 487.559 165.725 489.072 166.708" fill="#1D498C"/>
<path d="M483.979 162.922C479.429 164.593 476.993 161.916 481.587 156.82C488.674 148.956 493.515 128.848 504.041 125.204C511.295 122.691 516.782 130.877 526.411 135.964C530.781 138.273 533.227 140.686 531.587 143.518C526.615 147.111 488.744 161.174 483.979 162.922" fill="#112E59"/>
<path d="M512.85 132.78C512.8 132.651 512.777 132.583 512.763 132.554C511.733 132.693 510.679 132.687 509.689 132.551C508.702 132.416 507.775 132.151 506.995 131.777C506.992 131.78 506.992 131.783 506.989 131.787C506.825 132.174 506.611 132.564 506.36 132.948C506.028 133.457 505.617 133.954 505.158 134.422C504.928 134.657 504.687 134.89 504.429 135.106C504.044 135.431 503.629 135.738 503.194 136.009C503.225 136.086 503.338 136.38 503.716 137.351C503.793 137.544 503.88 137.767 503.977 138.018C504.028 138.144 504.078 138.276 504.135 138.418C504.299 138.844 504.493 139.344 504.72 139.928C505.025 140.708 505.446 141.36 505.938 141.908C506.099 142.089 506.269 142.26 506.447 142.418C506.975 142.895 507.554 143.276 508.136 143.573C508.715 143.873 509.297 144.092 509.829 144.253C510.542 144.469 511.164 144.579 511.582 144.634C511.79 144.663 511.947 144.679 512.037 144.682C512.201 144.514 512.64 144.056 513.118 143.379C513.309 143.105 513.506 142.798 513.694 142.463C513.787 142.295 513.881 142.118 513.968 141.934C514.667 140.47 515.102 138.554 514.289 136.473C513.379 134.132 513.004 133.167 512.85 132.78" fill="#F7BD0C"/>
<path d="M512.626 137.121C513.259 138.772 512.379 140.608 510.659 141.224C508.936 141.837 507.026 140.995 506.393 139.343C505.758 137.692 506.637 135.857 508.361 135.244C510.08 134.628 511.991 135.469 512.626 137.121" fill="white"/>
<path d="M518.829 209.092L521.018 213.508L521.352 208.814L524.3 216.362C523.567 215.111 521.068 214.011 521.068 214.011C521.068 214.011 518.344 215.214 517.026 218.081L518.829 209.092" fill="#231F20"/>
<path d="M498.885 200.506C502.151 204.567 512.774 207.347 518.83 209.092L517.026 218.081C509.749 215.711 500.341 213.024 496.125 204.631C495.171 202.344 496.309 201.077 498.885 200.506" fill="#1D498C"/>
<path d="M526.763 199.089C526.438 200.566 526.187 206.363 521.352 208.814L524.3 216.362C530.968 212.685 531.316 209.278 530.292 203.934C529.874 201.808 529.135 199.531 526.763 199.089" fill="#1D498C"/>
<path d="M532.531 300.162C532.38 300.162 532.25 300.053 532.233 299.904C531.49 293.231 530.885 285.27 530.242 276.842C528.499 253.88 526.522 227.857 520.79 214.116C520.727 213.968 520.804 213.8 520.958 213.739C521.108 213.681 521.285 213.752 521.346 213.9C527.114 227.725 529.095 253.796 530.841 276.797C531.483 285.222 532.086 293.176 532.832 299.843C532.849 300.001 532.728 300.143 532.564 300.162C532.554 300.162 532.544 300.162 532.531 300.162" fill="#231F20"/>
<path d="M489.955 294.305C504.138 297.973 559.756 296.569 561.971 294.934C565.353 294.202 566.116 305.93 564.152 308.755C561.151 313.077 489.708 312.387 487.446 309.278C485.184 306.172 485.947 293.27 489.955 294.305" fill="#231F20"/>
<path d="M544.897 230.87C544.88 230.738 544.873 230.67 544.87 230.638C543.86 230.538 542.869 230.296 541.966 229.944C541.066 229.593 540.256 229.135 539.61 228.606C539.607 228.606 539.604 228.609 539.604 228.612C539.353 228.941 539.058 229.261 538.727 229.567C538.289 229.973 537.78 230.351 537.235 230.689C536.957 230.86 536.676 231.025 536.378 231.17C535.933 231.393 535.472 231.586 534.993 231.747C535.003 231.825 535.04 232.128 535.161 233.131C535.184 233.331 535.214 233.557 535.244 233.818C535.261 233.947 535.278 234.086 535.294 234.234C535.348 234.673 535.408 235.186 535.482 235.792C535.579 236.595 535.82 237.308 536.148 237.934C536.258 238.143 536.378 238.343 536.506 238.534C536.887 239.101 537.345 239.592 537.82 240.005C538.296 240.417 538.791 240.756 539.256 241.027C539.875 241.392 540.434 241.637 540.815 241.782C541.006 241.856 541.15 241.904 541.233 241.93C541.431 241.808 541.956 241.475 542.572 240.943C542.819 240.727 543.08 240.482 543.338 240.208C543.468 240.069 543.599 239.924 543.726 239.772C544.743 238.543 545.616 236.831 545.359 234.683C545.068 232.27 544.947 231.273 544.897 230.87" fill="#F7BD0C"/>
<path d="M548.634 246.539L534.652 247.852L534.404 245.381L548.383 244.068L548.634 246.539" fill="#1D498C"/>
<path d="M532.949 339.791H528.653L528.743 339.436C530.67 331.575 530.935 312.458 530.935 312.265L531.537 312.271C531.534 312.461 531.276 331.088 529.409 339.213H532.457C532.852 337.288 535.525 323.744 534.849 312.755L535.448 312.719C536.178 324.596 533.029 339.413 532.999 339.562L532.949 339.791Z" fill="#231F20"/>
<path d="M462.861 251.058C462.861 251.058 457.213 281.871 462.971 292.738C468.92 303.969 523.848 306.414 523.848 306.414L525.816 290.477L487.964 281.217L496.185 257.619L462.861 251.058Z" fill="#F7A594"/>
<path d="M477.104 211.43C477.104 211.43 461.148 230.196 460.502 257.083C481.3 271.701 495.004 261.17 495.004 261.17C495.004 261.17 505.55 234.298 503.211 221.222C500.876 208.146 481.825 206.682 477.104 211.43Z" fill="#112E59"/>
<path d="M461.211 249.026C464.028 252.332 496.349 258.78 497.018 255.151C497.918 258.619 497.727 261.996 494.827 265.15C494.003 270.189 458.959 264.883 459.782 259.845C457.748 256.725 458.223 253.119 461.211 249.026" fill="#1D498C"/>
<path d="M497.018 255.442C496.968 255.442 496.914 255.426 496.868 255.4C496.724 255.319 496.677 255.142 496.761 255.003C499.093 251.194 501.05 246.046 502.131 240.882C502.161 240.724 502.321 240.624 502.482 240.656C502.646 240.685 502.75 240.84 502.716 240.995C501.625 246.223 499.645 251.436 497.276 255.297C497.222 255.39 497.122 255.442 497.018 255.442" fill="#231F20"/>
<path d="M500.899 253.09C500.899 252.906 500.899 252.825 500.903 252.805C500.899 252.841 500.899 253.09 500.899 253.09Z" fill="#D9FFFF"/>
<path d="M500.899 253.09C500.899 252.906 500.899 252.825 500.903 252.805C500.899 252.841 500.899 253.09 500.899 253.09Z" fill="#D9FFFF"/>
<path d="M614.908 254.299C614.908 254.299 614.912 254.05 614.912 254.015C614.912 254.034 614.912 254.115 614.908 254.299Z" fill="#D9FFFF"/>
<path d="M614.908 254.299C614.908 254.299 614.912 254.05 614.912 254.015C614.912 254.034 614.912 254.115 614.908 254.299Z" fill="#D9FFFF"/>
<path d="M558.34 223.893C544.96 237.466 523.684 248.526 500.963 253.151C500.946 254.603 500.856 262.66 500.427 299.788C499.855 349.316 548.811 373.832 556.413 377.593C563.824 374.377 613.734 350.525 614.303 300.998C614.731 263.869 614.825 255.812 614.841 254.357C592.234 249.252 571.406 237.746 558.34 223.893" fill="white"/>
<path d="M558.143 232.843C545.054 244.213 526.967 253.103 507.112 257.883L506.631 299.849C506.406 319.051 514.239 336.471 529.904 351.631C540.196 361.591 551.046 367.797 556.557 370.591C556.795 370.478 557.056 370.349 557.313 370.223L558.257 232.943C558.22 232.908 558.18 232.876 558.143 232.843" fill="#007880"/>
<path d="M558.257 232.944L557.313 370.223C563.082 367.388 573.571 361.524 583.642 352.203C599.651 337.378 607.879 320.129 608.103 300.927L608.585 258.961C588.901 253.774 571.071 244.543 558.257 232.944Z" fill="#008F99"/>
<path d="M560.053 310.711L559.99 319.923C559.98 321.151 558.933 322.164 557.655 322.155C556.356 322.148 555.322 321.122 555.329 319.894L555.393 310.659C553.425 309.795 552.054 307.872 552.067 305.666C552.087 302.65 554.663 300.234 557.805 300.254C560.947 300.273 563.47 302.721 563.446 305.737C563.433 307.963 562.054 309.869 560.053 310.711V310.711ZM534.809 293.283L534.588 325.796C534.562 329.415 580.624 329.705 580.65 326.086L580.871 293.577L534.809 293.283Z" fill="white"/>
<path d="M576.856 291.232L572.196 291.203L572.209 289.013C572.262 281.43 565.872 275.217 557.969 275.169C550.066 275.117 543.592 281.249 543.539 288.832L543.525 291.022L538.861 290.993L538.878 288.803C538.945 278.752 547.523 270.627 557.999 270.692C568.475 270.76 576.94 278.991 576.873 289.045L576.856 291.232Z" fill="white"/>
</svg>
