<svg width="145" height="35" viewBox="0 0 145 35" fill="none" xmlns="http://www.w3.org/2000/svg">
<path d="M4.07318 7.99051C6.50869 7.99051 8.14636 6.39431 8.14636 4.21006C8.14636 2.19381 6.50869 0.681641 4.07318 0.681641C1.63767 0.681641 0 2.27783 0 4.33608C0 6.39431 1.63767 7.99051 4.07318 7.99051ZM0.797842 33.7396H7.34852V11.1409H0.797842V33.7396Z" fill="#EE6C4D"/>
<path d="M25.9266 0.4104C21.2927 0.4104 17.3355 2.07174 14.0959 5.35338C10.8153 8.67604 9.17505 12.6345 9.17505 17.2288C9.17505 21.8847 10.8153 25.8431 14.0959 29.1043C17.3355 32.3654 21.2722 34.0062 25.9266 34.0062C30.5194 34.0062 34.4766 32.3654 37.7777 29.1043C41.0378 25.8431 43.0676 21.3719 42.596 15.1983H25.619V21.536H35.0507C33.5949 24.633 30.2733 27.3199 25.9881 27.3199C23.1996 27.3199 20.8211 26.3354 18.8938 24.3664C16.9254 22.3974 15.9413 20.0182 15.9413 17.2493C15.9413 14.4599 16.9254 12.1012 18.8938 10.1323C20.8416 8.14277 23.1996 7.15829 25.9881 7.15829C28.6945 7.15829 31.073 8.14277 33.0823 10.1323L37.8187 5.39441C35.1122 2.72808 31.032 0.492452 25.9471 0.492452L25.9266 0.4104Z" fill="white"/>
<path d="M44.0574 33.7396H50.7006V19.1158L60.1938 33.7396H68.3132L60.6243 21.7616C62.5107 21.0233 63.4333 20.3464 64.5816 18.7056C65.9758 16.7366 66.6729 14.6446 66.6729 12.409V11.5476C66.6729 7.89674 65.5042 6.07132 63.4949 4.0408C61.4855 2.07182 58.5125 0.677124 54.8423 0.677124H44.0574V33.7396ZM55.4779 16.4085H53.2635V16.388H50.7006V7.26095H54.4322C56.0315 7.26095 57.6513 7.75321 58.533 8.57362C59.3941 9.49658 59.8452 10.5631 59.8452 11.7732C59.8452 14.2755 57.8974 16.4085 55.4779 16.4085V16.4085Z" fill="white"/>
<path d="M80.6118 0L68.0334 28.1604L71.6159 33.7399H72.7178L74.9525 28.7144H86.2704L88.5057 33.7399H95.7023L80.6118 0ZM80.6319 15.8545L83.6462 22.8488H77.5773L80.6319 15.8545Z" fill="white"/>
<path d="M96.22 0.67688V23.8124V28.0897L98.7471 33.7398H102.863V23.8124H107.825C111.003 23.8124 113.73 22.6843 116.026 20.4282C118.302 18.2131 119.45 15.5057 119.45 12.2651C119.45 9.06546 118.302 6.33774 116.026 4.0611C113.771 1.80497 111.024 0.67688 107.825 0.67688H96.22ZM102.863 7.26085H107.825C110.531 7.26085 112.807 9.57903 112.808 12.2656C112.807 14.9727 110.531 17.2492 107.825 17.2492L102.863 17.229V7.26085Z" fill="white"/>
<path d="M120.703 0.677124V33.7396H127.326V20.49H138.377V33.7396H145V0.677124H138.377V13.9062H127.326V0.677124H120.703Z" fill="white"/>
</svg>
