<svg width="116" height="28" viewBox="0 0 116 28" fill="none" xmlns="http://www.w3.org/2000/svg">
<path d="M3.25384 6.38323C5.19944 6.38323 6.5077 5.10811 6.5077 3.36322C6.5077 1.75255 5.19944 0.544556 3.25384 0.544556C1.30825 0.544556 0 1.81967 0 3.46389C0 5.10811 1.30825 6.38323 3.25384 6.38323ZM0.637354 26.9528H5.87034V8.89989H0.637354V26.9528Z" fill="#3D5A80"/>
<path d="M20.7113 0.327881C17.0096 0.327881 13.8484 1.65504 11.2604 4.27656C8.63975 6.93086 7.32941 10.0931 7.32941 13.7632C7.32941 17.4825 8.63975 20.6447 11.2604 23.2499C13.8484 25.855 16.9932 27.1658 20.7113 27.1658C24.3803 27.1658 27.5415 25.855 30.1785 23.2499C32.7828 20.6447 34.4044 17.0729 34.0277 12.1412H20.4656V17.204H28.0001C26.8371 19.678 24.1837 21.8244 20.7604 21.8244C18.5328 21.8244 16.6328 21.038 15.0932 19.4651C13.5208 17.8921 12.7346 15.9915 12.7346 13.7796C12.7346 11.5513 13.5208 9.66708 15.0932 8.09416C16.6492 6.50486 18.5328 5.71841 20.7604 5.71841C22.9225 5.71841 24.8225 6.50486 26.4277 8.09416L30.2113 4.30934C28.0492 2.17935 24.7897 0.393427 20.7277 0.393427L20.7113 0.327881Z" fill="#303041"/>
<path d="M35.1951 26.9528H40.502V15.2706L48.0856 26.9528H54.5718L48.4295 17.3842C49.9364 16.7944 50.6735 16.2537 51.5908 14.9429C52.7045 13.37 53.2614 11.6988 53.2614 9.91288V9.22474C53.2614 6.30829 52.3278 4.85006 50.7226 3.22799C49.1175 1.65507 46.7425 0.540924 43.8106 0.540924H35.1951V26.9528ZM44.3183 13.1079H42.5494V13.0915H40.502V5.8004H43.483C44.7606 5.8004 46.0545 6.19363 46.7589 6.84902C47.4468 7.58632 47.8071 8.4383 47.8071 9.405C47.8071 11.4039 46.2511 13.1079 44.3183 13.1079V13.1079Z" fill="#303041"/>
<path d="M64.3965 0L54.3483 22.4959L57.2102 26.953H58.0904L59.8756 22.9384H68.9169L70.7026 26.953H76.4515L64.3965 0ZM64.4125 12.6653L66.8205 18.2527H61.9724L64.4125 12.6653Z" fill="#303041"/>
<path d="M76.865 0.540802V19.0226V22.4394L78.8838 26.953H82.172V19.0226H86.1357C88.6745 19.0226 90.8528 18.1214 92.6873 16.3191C94.5054 14.5496 95.4225 12.3867 95.4225 9.79798C95.4225 7.24199 94.5054 5.06297 92.6873 3.24428C90.8856 1.44198 88.6909 0.540802 86.1357 0.540802H76.865ZM82.172 5.80039H86.1357C88.2976 5.80039 90.1157 7.65226 90.116 9.79844C90.1157 11.961 88.2976 13.7795 86.1357 13.7795L82.172 13.7634V5.80039Z" fill="#303041"/>
<path d="M96.4234 0.540924V26.9528H101.714V16.3684H110.542V26.9528H115.833V0.540924H110.542V11.109H101.714V0.540924H96.4234Z" fill="#303041"/>
</svg>
