<svg width="649" height="465" viewBox="0 0 649 465" fill="none" xmlns="http://www.w3.org/2000/svg">
<path d="M264.373 408.046C264.373 408.046 237.188 392.28 229.577 365.097C221.966 337.914 204.024 334.652 204.024 334.652C204.024 334.652 252.411 340.631 258.935 360.201C265.46 379.776 282.858 410.221 282.858 410.221L264.373 408.046" fill="#60D8B9"/>
<path d="M277.964 414.571C277.964 414.571 293.187 356.939 313.847 359.66C334.506 362.376 341.577 340.631 341.577 340.631C341.577 340.631 341.622 367.086 323.633 377.601C288.294 398.259 298.624 404.784 295.905 415.113C293.187 425.446 277.964 414.571 277.964 414.571" fill="#46BFA5"/>
<path d="M284.488 408.045C284.488 408.045 300.798 333.018 269.809 322.689C269.809 322.689 277.964 340.63 273.071 350.418C268.178 360.2 257.848 373.25 264.916 391.192C271.983 409.133 276.877 426.533 284.488 408.045Z" fill="#56CCB0"/>
<path d="M302.827 401.603V438.828C302.827 447.783 298.266 455.668 291.342 460.3C287.248 463.04 282.319 464.637 277.018 464.637C262.763 464.637 251.209 453.084 251.209 438.828V401.603H302.827" fill="#524486"/>
<path d="M277.018 464.637C262.763 464.637 251.209 453.084 251.209 438.828V434.956L251.83 434.833L251.209 430.583V401.603H253.825C254.683 418.107 259.25 450.003 281.485 456.201C285.312 457.27 288.573 458.667 291.342 460.3C287.247 463.04 282.319 464.637 277.018 464.637" fill="#463A73"/>
<path d="M583.518 463.612H393.703C393.08 463.612 392.575 463.107 392.575 462.484V20.6756C392.575 20.0522 393.08 19.5471 393.703 19.5471H583.518C584.142 19.5471 584.647 20.0522 584.647 20.6756V462.484C584.647 463.107 584.142 463.612 583.518 463.612Z" fill="#EFEFEF"/>
<path d="M570.328 337.126H467.385V336.885C467.385 336.262 466.88 335.757 466.256 335.757H406.408V321.651C406.808 320.127 407.017 318.53 407.017 316.878V289.65H406.408V244.876C406.408 244.522 406.699 244.23 407.054 244.23H518.679C528.794 254.191 539.054 258.586 539.054 258.586C547.809 254.627 554.616 249.677 559.903 244.23H570.328C570.682 244.23 570.974 244.521 570.974 244.876V336.48C570.974 336.835 570.683 337.127 570.328 337.127V337.126ZM474.697 259.278C473.336 259.278 472.235 260.379 472.235 261.739C472.235 263.1 473.336 264.201 474.697 264.201H502.685C504.045 264.201 505.147 263.1 505.147 261.739C505.147 260.379 504.045 259.278 502.685 259.278H474.697Z" fill="#F6F6F6"/>
<path d="M570.328 237.127H565.8C567.848 234.234 569.554 231.262 570.974 228.286V236.481C570.974 236.841 570.683 237.127 570.328 237.127V237.127ZM512.359 237.127H407.054C406.699 237.127 406.408 236.841 406.408 236.481V229.897H507.481C508.991 232.5 510.639 234.907 512.359 237.127ZM570.974 180.696L560.54 170.681L557.469 170.721V144.23H570.328C570.682 144.23 570.974 144.521 570.974 144.881V180.695" fill="#F6F6F6"/>
<path d="M572.334 137.133H557.469V44.2371H572.334C572.694 44.2371 572.981 44.5237 572.981 44.8831V136.483C572.981 136.842 572.694 137.133 572.334 137.133Z" fill="#F6F6F6"/>
<path d="M564.499 440.952H407.054C406.721 440.952 406.449 440.697 406.412 440.374H466.256C466.879 440.374 467.384 439.869 467.384 439.246V348.056H570.328C570.682 348.056 570.974 348.347 570.974 348.702V406.157H564.499V440.907C564.499 440.92 564.499 440.938 564.499 440.952V440.952ZM474.697 365.702C473.336 365.702 472.235 366.803 472.235 368.163C472.235 369.524 473.336 370.625 474.697 370.625H502.685C504.045 370.625 505.146 369.524 505.146 368.163C505.146 366.803 504.045 365.702 502.685 365.702H474.697Z" fill="#F6F6F6"/>
<path d="M502.685 370.625H474.697C473.336 370.625 472.235 369.524 472.235 368.164C472.235 366.803 473.336 365.702 474.697 365.702H502.685C504.045 365.702 505.146 366.803 505.146 368.164C505.146 369.524 504.045 370.625 502.685 370.625Z" fill="#E8E8E8"/>
<path d="M502.685 264.201H474.697C473.336 264.201 472.235 263.1 472.235 261.74C472.235 260.379 473.336 259.278 474.697 259.278H502.685C504.045 259.278 505.146 260.379 505.146 261.74C505.146 263.1 504.045 264.201 502.685 264.201Z" fill="#E8E8E8"/>
<path d="M184.629 462.157H30.9298C30.3073 462.157 29.8018 461.652 29.8018 461.029V102.725C29.8018 102.102 30.3073 101.597 30.9298 101.597H184.629C185.252 101.597 185.757 102.102 185.757 102.725V461.029C185.757 461.652 185.252 462.157 184.629 462.157Z" fill="#EFEFEF"/>
<path d="M153.191 361.052H99.8838V351.369H89.9367V361.052H40.277C39.9198 361.052 39.6304 360.765 39.6304 360.405V346.841C41.9715 350.154 43.4021 352.019 43.4021 352.019L90.8754 340.357L120.158 334.306C120.158 334.306 120.09 333.923 119.952 333.209L135.534 329.382C135.534 329.382 132.317 308.474 123.751 284.058H149.893L153.191 361.052" fill="#F6F6F6"/>
<path d="M149.64 278.17H121.604C109.131 245.282 87.0182 208.694 50.3416 208.694C46.9025 208.694 43.3293 209.017 39.6304 209.695V201.823C39.6304 201.468 39.9198 201.177 40.277 201.177H125.368C125.68 202.756 126.385 204.285 127.504 205.604L143.756 224.824L143.631 225.871L143.748 225.984L143.668 238.647C143.652 241.073 145.63 242.902 147.901 242.902C147.977 242.902 148.053 242.902 148.129 242.897L148.13 242.902L148.224 245.104L149.64 278.17L149.64 278.17ZM96.2291 214.313C95.1025 214.313 94.1884 215.228 94.1884 216.352C94.1884 217.48 95.1025 218.395 96.2291 218.395H119.427C120.554 218.395 121.468 217.48 121.468 216.352C121.468 215.228 120.554 214.313 119.427 214.313H96.2291Z" fill="#F6F6F6"/>
<path d="M125.933 195.289H41.9412C41.5841 195.289 41.2947 195.002 41.2947 194.643V118.942C41.2947 118.587 41.5841 118.296 41.9412 118.296H177.043C177.4 118.296 177.69 118.587 177.69 118.942V129.944C176.335 129.917 174.99 129.904 173.666 129.904C170.326 129.904 167.105 129.986 164.125 130.127C163.726 129.982 163.297 129.904 162.851 129.904H154.169C153.292 129.904 152.441 130.009 151.628 130.209C148.799 130.277 146.035 131.883 144.71 134.782C137.442 150.689 129.416 181.303 125.933 195.29V195.289ZM96.2289 126.441C95.1023 126.441 94.1882 127.351 94.1882 128.48C94.1882 129.608 95.1023 130.523 96.2289 130.523H119.427C120.554 130.523 121.467 129.608 121.467 128.48C121.467 127.351 120.554 126.441 119.427 126.441H96.2289Z" fill="#F6F6F6"/>
<path d="M175.379 447.105H174.998L175.473 441.494H175.474L175.692 438.91H176.026V446.458C176.026 446.813 175.737 447.105 175.379 447.105V447.105ZM161.716 447.105H99.8838V388.817H119.427C120.554 388.817 121.468 387.902 121.468 386.774C121.468 385.65 120.554 384.735 119.427 384.735H99.8838V370.111H153.58L156.528 438.923L161.499 438.919L161.716 447.105V447.105ZM89.9367 447.105H40.277C39.9198 447.105 39.6304 446.814 39.6304 446.459V370.757C39.6304 370.403 39.9198 370.111 40.277 370.111H89.9367V447.105" fill="#F6F6F6"/>
<path d="M119.427 388.817H99.8837V384.735H119.427C120.554 384.735 121.467 385.65 121.467 386.774C121.467 387.902 120.554 388.817 119.427 388.817Z" fill="#E8E8E8"/>
<path d="M119.427 218.394H96.229C95.1024 218.394 94.1882 217.48 94.1882 216.351C94.1882 215.228 95.1024 214.313 96.229 214.313H119.427C120.554 214.313 121.467 215.228 121.467 216.351C121.467 217.48 120.554 218.394 119.427 218.394Z" fill="#E8E8E8"/>
<path d="M119.427 130.521H96.229C95.1024 130.521 94.1882 129.607 94.1882 128.478C94.1882 127.35 95.1024 126.44 96.229 126.44H119.427C120.554 126.44 121.467 127.35 121.467 128.478C121.467 129.607 120.554 130.521 119.427 130.521Z" fill="#E8E8E8"/>
<path d="M378.888 294.365C378.888 294.365 359.008 282.83 353.439 262.946C347.87 243.062 334.747 240.677 334.747 240.677C334.747 240.677 370.143 245.05 374.911 259.369C379.684 273.684 392.411 295.953 392.411 295.953L378.888 294.365" fill="#60D8B9"/>
<path d="M388.831 299.138C388.831 299.138 399.965 256.98 415.08 258.969C430.192 260.957 435.361 245.05 435.361 245.05C435.361 245.05 435.396 264.402 422.238 272.096C396.388 287.207 403.942 291.976 401.953 299.534C399.965 307.091 388.831 299.138 388.831 299.138" fill="#46BFA5"/>
<path d="M393.604 294.364C393.604 294.364 405.534 239.485 382.865 231.927C382.865 231.927 388.831 245.049 385.254 252.211C381.673 259.369 374.12 268.911 379.289 282.038C384.458 295.161 388.039 307.883 393.604 294.364" fill="#56CCB0"/>
<path d="M89.9367 461.934H99.884V351.37H89.9367V461.934Z" fill="#524486"/>
<path d="M114.043 461.934H74.8349C74.8349 453.598 81.5914 446.841 89.9274 446.841H98.9508C107.286 446.841 114.043 453.598 114.043 461.934Z" fill="#524486"/>
<path d="M89.9367 356.378H99.884V351.368H89.9367V356.378Z" fill="#453970"/>
<path d="M43.4021 352.02C43.4021 352.02 -47.1532 233.797 33.3408 211.155C113.834 188.518 135.534 329.383 135.534 329.383L43.4021 352.02" fill="#524486"/>
<path d="M90.8754 340.358L119.952 333.209C120.09 333.924 120.158 334.306 120.158 334.306L90.8754 340.358" fill="#AAAAAA"/>
<path d="M64.8272 345.74C64.8272 345.74 -9.08128 247.766 44.6176 230.043C48.2523 228.841 51.7454 228.282 55.0916 228.282C98.4198 228.282 117.789 321.993 119.953 333.209L90.8756 340.357L64.8272 345.74" fill="#392F5C"/>
<path d="M160.048 352.019H43.4023V329.382H164.143V347.924C164.143 350.186 162.31 352.019 160.048 352.019Z" fill="#524486"/>
<path d="M557.469 31.6513V212.593C557.469 222.153 549.724 229.898 540.165 229.898H267.705C258.143 229.898 250.4 222.153 250.4 212.593V31.6513C250.4 22.0868 258.143 14.3469 267.705 14.3469H540.165C549.724 14.3469 557.469 22.0868 557.469 31.6513" fill="#D4EAFF"/>
<path d="M521.946 123.619H424.408V101.65H521.946V123.619ZM493.257 114L493.226 118.372H494.646V114L498.495 116.247L499.2 114.955L495.383 112.798L499.2 110.642L498.495 109.317L494.646 111.597V107.224H493.226L493.257 111.597L489.408 109.317L488.666 110.642L492.515 112.798L488.666 114.955L489.408 116.247L493.257 114ZM480.753 114L480.722 118.372H482.142V114L485.991 116.247L486.697 114.955L482.879 112.798L486.697 110.642L485.991 109.317L482.142 111.597V107.224H480.722L480.753 111.597L476.904 109.317L476.167 110.642L480.016 112.798L476.167 114.955L476.904 116.247L480.753 114ZM468.249 114L468.223 118.372H469.638V114L473.487 116.247L474.197 114.955L470.375 112.798L474.197 110.642L473.487 109.317L469.638 111.597V107.224H468.223L468.249 111.597L464.4 109.317L463.663 110.642L467.512 112.798L463.663 114.955L464.4 116.247L468.249 114ZM455.75 114L455.719 118.372H457.134V114L460.984 116.247L461.693 114.955L457.871 112.798L461.693 110.642L460.984 109.317L457.134 111.597V107.224H455.719L455.75 111.597L451.896 109.317L451.159 110.642L455.008 112.798L451.159 114.955L451.896 116.247L455.75 114ZM443.246 114L443.215 118.372H444.63V114L448.48 116.247L449.189 114.955L445.372 112.798L449.189 110.642L448.48 109.317L444.63 111.597V107.224H443.215L443.246 111.597L439.392 109.317L438.655 110.642L442.504 112.798L438.655 114.955L439.392 116.247L443.246 114Z" fill="#B4D2F4"/>
<path d="M522.546 166.072H425.009V144.704H522.546V166.072ZM493.257 156.548L493.226 160.921H494.641V156.548L498.49 158.796L499.2 157.504L495.383 155.347L499.2 153.19L498.49 151.866L494.641 154.146V149.773H493.226L493.257 154.146L489.407 151.866L488.666 153.19L492.515 155.347L488.666 157.504L489.407 158.796L493.257 156.548ZM480.753 156.548L480.722 160.921H482.142V156.548L485.991 158.796L486.696 157.504L482.879 155.347L486.696 153.19L485.991 151.866L482.142 154.146V149.773H480.722L480.753 154.146L476.904 151.866L476.162 153.19L480.011 155.347L476.162 157.504L476.904 158.796L480.753 156.548ZM468.249 156.548L468.218 160.921H469.638V156.548L473.487 158.796L474.193 157.504L470.375 155.347L474.193 153.19L473.487 151.866L469.638 154.146V149.773H468.218L468.249 154.146L464.4 151.866L463.663 153.19L467.512 155.347L463.663 157.504L464.4 158.796L468.249 156.548ZM455.745 156.548L455.719 160.921H457.134V156.548L460.983 158.796L461.693 157.504L457.871 155.347L461.693 153.19L460.983 151.866L457.134 154.146V149.773H455.719L455.745 154.146L451.896 151.866L451.159 153.19L455.008 155.347L451.159 157.504L451.896 158.796L455.745 156.548ZM443.241 156.548L443.215 160.921H444.63V156.548L448.479 158.796L449.189 157.504L445.367 155.347L449.189 153.19L448.479 151.866L444.63 154.146V149.773H443.215L443.241 154.146L439.392 151.866L438.655 153.19L442.504 155.347L438.655 157.504L439.392 158.796L443.241 156.548Z" fill="#B4D2F4"/>
<path d="M403.937 199.944H387.056C383.784 174.445 362.012 154.742 335.634 154.742C309.259 154.742 287.483 174.445 284.212 199.944H267.334V90.6624H403.937V199.944ZM335.634 106.884C323.887 106.884 314.364 116.407 314.364 128.151C314.364 139.9 323.887 149.423 335.634 149.423C347.383 149.423 356.906 139.9 356.906 128.151C356.906 116.407 347.383 106.884 335.634 106.884" fill="#B4D2F4"/>
<path d="M557.469 31.6513V64.3215H250.4V31.6513C250.4 22.0868 258.143 14.3469 267.705 14.3469H540.165C549.724 14.3469 557.469 22.0868 557.469 31.6513Z" fill="#3E78CA"/>
<path d="M278.104 48.0637C277.931 48.0637 277.758 48.0593 277.583 48.046C272.936 47.7638 269.399 43.7688 269.683 39.1186C269.956 34.6503 273.669 31.2058 278.089 31.2058C278.262 31.2058 278.436 31.2102 278.611 31.2191C283.257 31.5057 286.794 35.5008 286.51 40.1466C286.237 44.6194 282.525 48.0639 278.104 48.0639" fill="#B3D1F3"/>
<path d="M300.984 48.0637C300.811 48.0637 300.637 48.0593 300.462 48.046C295.816 47.7638 292.279 43.7688 292.563 39.1186C292.835 34.6503 296.548 31.2058 300.969 31.2058C301.142 31.2058 301.315 31.2102 301.49 31.2191C306.137 31.5057 309.674 35.5008 309.39 40.1466C309.117 44.6194 305.405 48.0639 300.984 48.0639" fill="#83ACE2"/>
<path d="M325.069 48.0637C324.896 48.0637 324.723 48.0593 324.546 48.046C319.9 47.7638 316.362 43.7688 316.647 39.1186C316.919 34.6503 320.631 31.2058 325.051 31.2058C325.224 31.2058 325.401 31.2102 325.574 31.2191C330.22 31.5057 333.76 35.5008 333.473 40.1466C333.2 44.6194 329.487 48.0639 325.069 48.0639" fill="#B0CFF2"/>
<path d="M335.634 149.423C323.887 149.423 314.364 139.899 314.364 128.151C314.364 116.407 323.887 106.883 335.634 106.883C347.383 106.883 356.906 116.407 356.906 128.151C356.906 139.899 347.383 149.423 335.634 149.423Z" fill="#80AAE2"/>
<path d="M387.056 199.944H284.212C287.483 174.445 309.259 154.743 335.634 154.743C362.011 154.743 383.784 174.445 387.056 199.944" fill="#80AAE2"/>
<path d="M444.629 118.373H443.214L443.245 114L439.391 116.248L438.654 114.955L442.503 112.799L438.654 110.642L439.391 109.318L443.245 111.597L443.214 107.225H444.629V111.597L448.479 109.318L449.188 110.642L445.371 112.799L449.188 114.955L448.479 116.248L444.629 114V118.373Z" fill="#E0ECFA"/>
<path d="M457.133 118.373H455.718L455.749 114L451.895 116.248L451.158 114.955L455.008 112.799L451.158 110.642L451.895 109.318L455.749 111.597L455.718 107.225H457.133V111.597L460.983 109.318L461.693 110.642L457.87 112.799L461.693 114.955L460.983 116.248L457.133 114V118.373Z" fill="#E0ECFA"/>
<path d="M469.637 118.373H468.222L468.248 114L464.399 116.248L463.662 114.955L467.511 112.799L463.662 110.642L464.399 109.318L468.248 111.597L468.222 107.225H469.637V111.597L473.486 109.318L474.196 110.642L470.374 112.799L474.196 114.955L473.486 116.248L469.637 114V118.373Z" fill="#E0ECFA"/>
<path d="M482.141 118.373H480.721L480.752 114L476.903 116.248L476.166 114.955L480.015 112.799L476.166 110.642L476.903 109.318L480.752 111.597L480.721 107.225H482.141V111.597L485.99 109.318L486.696 110.642L482.878 112.799L486.696 114.955L485.99 116.248L482.141 114V118.373Z" fill="#E0ECFA"/>
<path d="M494.644 118.373H493.225L493.256 114L489.406 116.248L488.665 114.955L492.514 112.799L488.665 110.642L489.406 109.318L493.256 111.597L493.225 107.225H494.644V111.597L498.494 109.318L499.199 110.642L495.381 112.799L499.199 114.955L498.494 116.248L494.644 114V118.373Z" fill="#E0ECFA"/>
<path d="M444.629 160.922H443.214L443.241 156.549L439.391 158.797L438.654 157.504L442.504 155.348L438.654 153.191L439.391 151.867L443.241 154.146L443.214 149.774H444.629V154.146L448.479 151.867L449.189 153.191L445.367 155.348L449.189 157.504L448.479 158.797L444.629 156.549V160.922Z" fill="#E0ECFA"/>
<path d="M457.133 160.922H455.718L455.745 156.549L451.895 158.797L451.158 157.504L455.008 155.348L451.158 153.191L451.895 151.867L455.745 154.146L455.718 149.774H457.133V154.146L460.983 151.867L461.692 153.191L457.87 155.348L461.692 157.504L460.983 158.797L457.133 156.549V160.922Z" fill="#E0ECFA"/>
<path d="M469.637 160.922H468.217L468.248 156.549L464.399 158.797L463.662 157.504L467.511 155.348L463.662 153.191L464.399 151.867L468.248 154.146L468.217 149.774H469.637V154.146L473.487 151.867L474.192 153.191L470.374 155.348L474.192 157.504L473.487 158.797L469.637 156.549V160.922Z" fill="#E0ECFA"/>
<path d="M482.141 160.922H480.721L480.752 156.549L476.902 158.797L476.161 157.504L480.01 155.348L476.161 153.191L476.902 151.867L480.752 154.146L480.721 149.774H482.141V154.146L485.99 151.867L486.695 153.191L482.878 155.348L486.695 157.504L485.99 158.797L482.141 156.549V160.922Z" fill="#E0ECFA"/>
<path d="M494.64 160.922H493.225L493.256 156.549L489.406 158.797L488.665 157.504L492.514 155.348L488.665 153.191L489.406 151.867L493.256 154.146L493.225 149.774H494.64V154.146L498.489 151.867L499.199 153.191L495.381 155.348L499.199 157.504L498.489 158.797L494.64 156.549V160.922Z" fill="#E0ECFA"/>
<path d="M174.824 449.156L161.76 448.774L161.413 435.688L175.929 436.111L174.824 449.157" fill="#FCC5C3"/>
<path d="M193.165 457.829V457.847C193.088 460.445 192.472 462.711 192.472 462.711L153.555 462.456C153.828 459.803 154.369 457.515 154.547 455.472C155.176 448.25 157.471 445.238 159.516 444.005C161.02 443.1 162.98 443.755 163.704 445.352C166.761 452.104 175.69 445.966 175.69 445.966C177.297 448.209 181.049 448.505 184.888 449.17C186.658 449.452 188.443 449.825 190.045 450.507C192.725 451.636 193.274 454.944 193.165 457.829" fill="#213250"/>
<path d="M193.165 457.83C193.066 460.446 192.472 462.712 192.472 462.712L182.713 462.648C182.469 460.938 182.48 459.286 182.61 457.743C182.999 453.371 184.507 450.022 184.888 449.171C186.658 449.453 188.443 449.826 190.045 450.509C192.725 451.637 193.274 454.945 193.165 457.83" fill="#ECFAFD"/>
<path d="M193.165 457.829V457.847C193.088 460.445 192.472 462.711 192.472 462.711L153.555 462.456C153.828 459.803 154.159 457.483 154.547 455.472C157.945 457.001 171.981 457.547 182.61 457.742C187.084 457.824 190.957 457.851 193.165 457.828" fill="#213250"/>
<path d="M181.077 454.708L181.024 454.704C180.819 454.668 180.677 454.435 180.708 454.19C181.066 451.255 182.683 448.957 182.752 448.861C182.889 448.67 183.125 448.648 183.281 448.811C183.438 448.975 183.455 449.262 183.321 449.453C183.305 449.475 181.776 451.655 181.45 454.317C181.422 454.544 181.26 454.709 181.076 454.709" fill="#ECFAFD"/>
<path d="M178.214 454.689L178.096 454.663C177.9 454.586 177.795 454.326 177.862 454.09C178.777 450.832 180.04 448.27 180.093 448.161C180.2 447.947 180.43 447.878 180.608 448.006C180.785 448.133 180.844 448.411 180.737 448.625C180.724 448.651 179.461 451.218 178.572 454.381C178.519 454.572 178.372 454.69 178.214 454.69" fill="#ECFAFD"/>
<path d="M175.222 453.193L175.161 453.189C174.956 453.149 174.82 452.911 174.854 452.665C175.11 450.836 176.998 447.296 177.078 447.146C177.191 446.932 177.427 446.873 177.597 447.009C177.771 447.146 177.821 447.423 177.708 447.637C177.689 447.668 175.824 451.168 175.593 452.815C175.563 453.038 175.402 453.193 175.222 453.193" fill="#ECFAFD"/>
<path d="M175.474 441.494L175.692 438.91H175.692L175.474 441.494" fill="#D6D6D6"/>
<path d="M175.473 441.494L163.83 438.919L175.692 438.91L175.473 441.494" fill="#DBACAA"/>
<path d="M249.863 445.757L237.023 448.196L233.871 435.492L248.138 432.785L249.863 445.757Z" fill="#FCC5C3"/>
<path d="M269.64 450.285L269.644 450.303C270.127 452.856 270.013 455.204 270.013 455.204L231.952 463.321C231.649 460.677 231.684 458.32 231.419 456.287C230.48 449.102 232.073 445.662 233.806 444.019C235.081 442.814 237.134 443.032 238.186 444.438C242.623 450.371 250.023 442.458 250.023 442.458C252.075 444.306 255.803 443.787 259.695 443.61C261.485 443.505 263.308 443.487 265.019 443.81C267.879 444.333 269.126 447.446 269.64 450.285" fill="#213250"/>
<path d="M269.641 450.285C270.106 452.86 270.013 455.204 270.013 455.204L260.469 457.238C259.863 455.622 259.518 454.007 259.313 452.473C258.753 448.114 259.506 444.52 259.695 443.61C261.485 443.505 263.308 443.487 265.019 443.81C267.879 444.333 269.126 447.446 269.641 450.285" fill="#ECFAFD"/>
<path d="M269.641 450.285L269.644 450.302C270.127 452.855 270.013 455.203 270.013 455.203L231.952 463.32C231.649 460.677 231.472 458.333 231.419 456.286C235.066 457.05 248.891 454.566 259.313 452.473C263.701 451.59 267.489 450.78 269.641 450.284" fill="#213250"/>
<path d="M257.163 449.835L257.111 449.844C256.903 449.853 256.715 449.657 256.691 449.407C256.411 446.468 257.496 443.874 257.542 443.765C257.635 443.551 257.861 443.478 258.048 443.606C258.236 443.729 258.315 444.006 258.225 444.22C258.214 444.246 257.19 446.704 257.445 449.375C257.466 449.603 257.343 449.799 257.163 449.835" fill="#ECFAFD"/>
<path d="M254.363 450.435C254.325 450.44 254.284 450.444 254.243 450.435C254.033 450.4 253.875 450.171 253.89 449.925C254.084 446.545 254.765 443.769 254.795 443.655C254.852 443.419 255.063 443.305 255.264 443.391C255.464 443.478 255.581 443.737 255.523 443.969C255.516 443.996 254.835 446.777 254.647 450.053C254.635 450.253 254.517 450.399 254.363 450.435" fill="#ECFAFD"/>
<path d="M251.12 449.616L251.059 449.625C250.851 449.629 250.667 449.429 250.647 449.179C250.504 447.341 251.585 443.473 251.632 443.309C251.697 443.077 251.914 442.973 252.109 443.064C252.309 443.159 252.418 443.423 252.353 443.655C252.341 443.691 251.273 447.509 251.402 449.165C251.419 449.393 251.296 449.58 251.12 449.616" fill="#ECFAFD"/>
<path d="M248.849 438.136L248.499 435.501L248.849 438.136Z" fill="#DEDEDE"/>
<path d="M248.849 438.137L235.439 438.123L248.499 435.502L248.849 438.137" fill="#DBACAA"/>
<path d="M302.479 138.435L307.993 135.395C307.993 135.395 310.018 131.068 316.853 127.624C323.688 124.184 330.711 121.208 330.047 123.228C329.382 125.253 321.367 130.113 321.367 130.113C321.367 130.113 329.569 137.047 321.369 141.442C313.168 145.842 310.074 144.532 307.737 146.425C307.737 146.425 298.561 145.419 302.479 138.435" fill="#FCC5C3"/>
<path d="M199.528 157.65L203.064 132.733L213.873 133.943C218.893 134.503 223.677 136.373 227.747 139.363L252.862 157.809C253.479 158.073 254.626 165.422 255.514 171.824C256.096 176.023 251.895 179.263 247.976 177.643L199.528 157.65" fill="#524486"/>
<path d="M219.401 212.807L251.83 434.833L230.758 439.065L171.97 220.306L219.401 212.807Z" fill="#3E78CA"/>
<path d="M146.924 214.764L156.528 438.924L178.02 438.911L192.419 212.844L146.924 214.764" fill="#3E78CA"/>
<path d="M167.396 237.596C167.396 237.596 177.898 244.125 182.422 252.88C186.944 261.639 169.944 256.479 167.652 250.368C165.36 244.257 159.835 240.858 159.835 240.858C159.835 240.858 163.307 234.656 167.396 237.596" fill="#FCC5C3"/>
<path d="M210.003 134.439C212.071 135.181 213.512 136.628 213.741 138.307C215.395 150.442 222.077 202.223 218.22 219.514C218.22 219.514 168.851 222.103 157.73 217.58C157.73 217.58 147.813 150.879 146.834 132.787C146.698 130.285 189.469 127.104 210.003 134.439Z" fill="#46BFA5"/>
<path d="M193.886 130.973C193.662 134.585 189.492 137.775 185.607 137.539C181.813 137.302 177.89 133.543 178.022 129.953L178.82 115.579L192.893 116.772L192.919 118.455L193.886 129.762L193.897 130.481C193.9 130.649 193.896 130.809 193.886 130.973" fill="#FCC5C3"/>
<path d="M169.721 98.0195C169.721 110.05 178.509 119.801 189.35 119.801C200.19 119.801 208.977 110.05 208.977 98.0195C208.977 85.9888 200.19 76.2378 189.35 76.2378C178.509 76.2378 169.721 85.9888 169.721 98.0195Z" fill="#FCC5C3"/>
<path d="M178.896 120.73C178.295 119.738 177.554 118.837 176.704 118.045C174.107 115.62 168.058 108.908 167.018 98.1381C165.687 84.3511 170.123 85.5842 170.123 85.5842C170.123 85.5842 173.007 72.78 182.324 70.5641C191.642 68.3482 194.126 72.234 205.884 67.065C217.641 61.896 221.305 87.6727 205.777 88.9058C190.248 90.1344 191.42 88.7829 191.42 88.7829L194.435 90.6757C194.435 90.6757 188.593 89.5518 186.121 90.4528C181.972 91.9589 183.508 93.7881 184.173 99.4485C184.839 105.113 183.434 109.131 183.434 109.131C183.434 109.131 178.775 98.8751 175.226 99.3666C171.676 99.8625 177.196 107.989 178.11 112.416C179.329 118.323 178.931 120.784 178.931 120.784L178.896 120.73" fill="#394052"/>
<path d="M170.271 102.384C170.271 106.656 173.052 110.119 176.482 110.119C179.913 110.119 182.694 106.656 182.694 102.384C182.694 98.1158 179.913 94.6531 176.482 94.6531C173.052 94.6531 170.271 98.1158 170.271 102.384Z" fill="#FCC5C3"/>
<path d="M193.51 125.371C193.51 125.371 183.985 122.855 180.857 117.663C180.857 117.663 180.858 117.663 180.858 117.663C180.95 117.727 184.072 119.929 188.939 119.929C190.181 119.929 191.537 119.788 192.984 119.428C192.99 119.428 192.996 119.424 193.001 119.424L193.51 125.371" fill="#DBACAA"/>
<path d="M192.984 119.428C192.99 119.428 192.995 119.424 193.001 119.424C192.996 119.424 192.99 119.428 192.984 119.428ZM180.858 117.663C180.858 117.663 180.857 117.663 180.857 117.663C180.856 117.663 180.856 117.663 180.856 117.663C180.856 117.663 180.857 117.663 180.858 117.663Z" fill="#DBACAA"/>
<path d="M157.402 132.633L168.55 144.454L144.306 203.365C144.026 204.148 135.442 203.57 129.571 203.074C126.708 202.837 124.749 200.094 125.435 197.304C128.592 184.477 137.07 151.502 144.71 134.781C147.005 129.762 153.615 128.62 157.402 132.633" fill="#524486"/>
<path d="M243.949 173.348C246.503 178.417 252.815 180.268 257.703 177.384L308.549 147.348C309.102 147.025 309.286 146.324 308.951 145.815L303.071 136.842C302.787 136.405 302.215 136.25 301.716 136.473L248.735 159.961C243.608 162.236 241.426 168.338 243.949 173.348" fill="#524486"/>
<path d="M143.635 140.677L143.852 150.897L144.14 164.32L143.668 238.647C143.65 241.504 146.401 243.538 149.139 242.719C155.48 240.826 165.72 236.977 171.359 234.816C173.8 233.878 175.409 231.54 175.415 228.923L175.51 181.479C175.527 172.856 174.469 164.265 172.357 155.907L166.555 132.933C166.195 131.176 164.655 129.902 162.851 129.902H154.169C148.252 129.902 143.49 134.762 143.635 140.677" fill="#524486"/>
<path d="M222.944 237.064L222.311 232.732L222.598 232.878L222.944 237.064" fill="#B0B0B0"/>
<path d="M222.944 237.069L214.851 232.346C213.778 231.718 213.046 230.644 212.857 229.416L211.384 219.81C211.938 219.788 212.464 219.77 212.96 219.747L214.284 226.804C214.518 228.051 215.315 229.124 216.443 229.702L222.311 232.733L222.944 237.064L222.944 237.069" fill="#2B538B"/>
<path d="M211.384 219.81L204.231 173.18C204.305 173.598 204.38 174.012 204.458 174.426L212.96 219.746C212.464 219.768 211.938 219.786 211.384 219.81" fill="#308472"/>
<path d="M148.224 245.104L148.13 242.902L148.224 245.104Z" fill="#AAAAAA"/>
<path d="M148.224 245.104L148.13 242.902L148.151 242.897C148.477 242.88 148.808 242.82 149.138 242.72C151.331 242.065 153.99 241.178 156.763 240.204L157.441 241.005L148.224 245.104" fill="#2B538B"/>
<path d="M148.151 242.898L156.563 239.968L156.764 240.204C153.99 241.178 151.332 242.065 149.139 242.72C148.809 242.82 148.478 242.88 148.151 242.898" fill="#392F5C"/>
<path d="M170.586 235.157L170.561 235.122C170.836 235.017 171.102 234.917 171.359 234.817L170.586 235.158" fill="#2B538B"/>
<path d="M170.561 235.121L170.546 235.099L171.359 234.817C171.102 234.917 170.836 235.018 170.561 235.122" fill="#392F5C"/>
<path d="M211.528 220.752L191.939 220.374L191.948 220.243C199.403 220.203 206.464 219.992 211.384 219.81L211.529 220.752" fill="#2B538B"/>
<path d="M191.939 220.374L185.665 220.251L186.302 220.242C187.317 220.247 188.333 220.251 189.346 220.251C190.216 220.251 191.085 220.247 191.947 220.242L191.939 220.374" fill="#2B538B"/>
<path d="M189.346 220.251C188.333 220.251 187.317 220.247 186.302 220.243L211.384 219.81C206.464 219.992 199.403 220.201 191.948 220.243C191.085 220.247 190.216 220.251 189.346 220.251Z" fill="#308472"/>
<path d="M198.412 211.773C198.011 211.773 197.607 211.6 197.327 211.25L189.125 200.948L201.033 208.629L199.616 211.077C199.352 211.537 198.883 211.773 198.412 211.773" fill="#308472"/>
<path d="M181.205 135.723L194.638 135.359L195.608 141.192L192.324 144.632L207.649 203.115L203.012 213.603C202.075 215.724 199.313 216.265 197.646 214.655L187.163 204.526L185.286 144.473L179.813 140.409L181.205 135.723" fill="#95E199"/>
<path d="M202.577 134.822C202.577 133.248 204.042 132.083 205.577 132.438L215.696 134.772C216.33 134.917 216.781 135.327 216.841 135.823C217.706 142.967 227.254 209.135 230.364 230.658C230.772 233.479 227.82 235.572 225.286 234.266L216.443 229.702C215.315 229.124 214.518 228.05 214.285 226.804L204.458 174.427C203.207 167.756 202.577 160.985 202.577 154.196V134.822" fill="#524486"/>
<path d="M221.588 169.653C221.588 169.649 221.588 169.649 221.588 169.649C221.503 169.053 221.418 168.466 221.335 167.879L221.588 169.653" fill="#B0B0B0"/>
<path d="M221.587 169.649C221.489 169.208 213.48 162.091 213.48 162.091L221.147 166.573L221.334 167.879C221.418 168.466 221.502 169.053 221.587 169.649" fill="#392F5C"/>
<path d="M172.018 123.568L167.821 128.815C167.325 129.434 167.392 130.334 167.976 130.876L179.234 141.287C180.057 142.047 181.391 141.687 181.715 140.613L183.859 133.52C184.027 132.964 183.864 132.364 183.441 131.968L174.235 123.405C173.589 122.804 172.569 122.877 172.018 123.568" fill="#40B297"/>
<path d="M192.023 130.954L195.561 127.441C196.269 126.736 197.451 126.895 197.946 127.764L200.332 131.941C200.575 132.365 200.598 132.879 200.395 133.32L197.448 139.781C196.899 140.982 195.18 140.955 194.67 139.736L191.692 132.615C191.454 132.046 191.585 131.391 192.023 130.954" fill="#40B297"/>
<path d="M166.511 252.102C165.928 252.102 165.347 251.829 164.986 251.288L160.705 244.867L165.636 250.696C165.866 250.969 166.191 251.11 166.511 251.11C166.768 251.11 167.02 251.019 167.219 250.837L167.67 250.414C167.777 250.691 167.914 250.965 168.078 251.238L167.96 251.392C167.591 251.87 167.051 252.102 166.511 252.102" fill="#2B538B"/>
<path d="M168.078 251.238C167.914 250.965 167.777 250.692 167.67 250.415L171.359 246.993L168.078 251.238" fill="#AE8887"/>
<path d="M129.175 191.371C124.604 194.738 123.837 201.272 127.504 205.604L165.635 250.696C166.05 251.187 166.772 251.251 167.219 250.837L175.079 243.534C175.459 243.179 175.517 242.592 175.215 242.137L143.173 193.842C140.071 189.169 133.69 188.04 129.175 191.371H129.174" fill="#524486"/>
<path d="M143.749 225.985L143.632 225.871L143.756 224.825L143.749 225.985" fill="#AAAAAA"/>
<path d="M148.865 230.866L143.748 225.984L143.755 224.824L148.864 230.866" fill="#392F5C"/>
<path d="M143.945 195.007L143.173 193.842L143.968 191.38L143.945 195.007" fill="#392F5C"/>
<path d="M150.986 205.622L143.945 195.007L143.968 191.38L150.986 169.653V205.622" fill="#392F5C"/>
<path d="M203.511 335.689L198.436 318.73L188.12 280.331L189.423 259.887L203.511 335.689" fill="#2B538B"/>
<path d="M188.121 280.331L188.118 280.322L189.417 259.856L189.423 259.887L188.121 280.331" fill="#2B538B"/>
<path d="M514.962 171.332L560.541 170.681L576.821 186.307C576.821 186.307 586.586 237.096 539.055 258.586C539.055 258.586 491.191 238.074 500.31 185.333L514.962 171.332Z" fill="#524486"/>
<path d="M562.465 231.799C557.614 239.293 550.198 246.337 538.945 251.424C538.945 251.424 498.885 234.252 506.516 190.106L514.524 182.452L518.779 178.385L556.932 177.839L570.56 190.925C570.56 190.925 574.764 212.793 562.465 231.799" fill="#40376D"/>
<path d="M533.685 220.815C532.857 220.815 532.038 220.501 531.41 219.873L522.919 211.383C521.668 210.131 521.668 208.093 522.919 206.837C524.18 205.581 526.213 205.581 527.469 206.837L533.871 213.244L555.198 195.33C556.559 194.188 558.588 194.365 559.73 195.726C560.872 197.082 560.695 199.111 559.334 200.253L535.751 220.065C535.15 220.565 534.417 220.815 533.685 220.815" fill="white"/>
<path d="M538.945 251.424C538.945 251.424 505.547 237.109 505.552 201.008C505.552 197.573 505.852 193.942 506.516 190.106L514.525 182.453C512.536 191.175 508.869 215.391 525.814 227.445C533.622 233.001 541.266 234.743 547.773 234.743C553.979 234.743 559.157 233.16 562.465 231.799C557.615 239.293 550.198 246.337 538.945 251.424" fill="#342D59"/>
<path d="M109.37 58.8886C109.37 64.5262 107.512 69.7225 104.378 73.9087C103.769 74.7277 103.109 75.5012 102.404 76.2339C97.8371 81.0024 91.4118 83.9646 84.2972 83.9646C77.1821 83.9646 70.7568 81.0024 66.193 76.2339C65.4881 75.5012 64.8279 74.7232 64.2186 73.9041C61.0817 69.7225 59.2234 64.5217 59.2234 58.8886C59.2234 45.0424 70.4506 33.8171 84.2972 33.8171C98.1434 33.8171 109.37 45.0424 109.37 58.8886Z" fill="#D4EAFF"/>
<path d="M84.3905 61.1091C84.3591 61.1091 84.3286 61.1091 84.2972 61.1091C84.2662 61.1091 84.2353 61.1091 84.2048 61.1091C79.3079 61.0591 75.3534 57.0731 75.3534 52.1634C75.3534 47.222 79.358 43.2178 84.2981 43.2178C89.2373 43.2178 93.2419 47.222 93.2419 52.1634C93.2419 57.0731 89.2874 61.059 84.3905 61.1091" fill="#92B8E8"/>
<path d="M84.297 83.9649C77.1819 83.9649 70.7566 81.0027 66.1928 76.2342C65.4879 75.5016 64.8277 74.7235 64.2184 73.9045C67.7266 66.3739 75.3536 61.1458 84.2046 61.1094C84.2356 61.1094 84.2665 61.1094 84.2979 61.1094C84.3289 61.1094 84.3594 61.1094 84.3903 61.1094C93.2431 61.1448 100.867 66.3739 104.378 73.909C103.769 74.728 103.109 75.5016 102.404 76.2342C97.837 81.0027 91.4117 83.9649 84.297 83.9649" fill="#92B8E8"/>
<path d="M196.192 26.7323C196.192 32.7385 194.211 38.2851 190.87 42.7443C190.219 43.6179 189.516 44.4461 188.764 45.2287C183.895 50.3113 177.044 53.469 169.458 53.469C161.871 53.469 155.021 50.3113 150.154 45.2287C149.403 44.4461 148.7 43.6134 148.049 42.7443C144.705 38.2806 142.723 32.7385 142.723 26.7323C142.723 11.9715 154.694 0 169.458 0C184.221 0 196.192 11.9715 196.192 26.7323Z" fill="#D4EAFF"/>
<path d="M169.554 29.098C169.522 29.098 169.49 29.098 169.458 29.098C169.426 29.098 169.394 29.098 169.362 29.098C164.139 29.048 159.921 24.7981 159.921 19.5608C159.921 14.2963 164.191 10.0237 169.459 10.0237C174.725 10.0237 178.995 14.2963 178.995 19.5608C178.995 24.7981 174.777 29.0479 169.554 29.098" fill="#92B8E8"/>
<path d="M169.458 53.4693C161.871 53.4693 155.021 50.3116 150.154 45.229C149.403 44.4464 148.7 43.6137 148.049 42.7446C151.79 34.7135 159.924 29.135 169.362 29.0986C169.395 29.0986 169.426 29.0986 169.459 29.0986C169.491 29.0986 169.523 29.0986 169.554 29.0986C178.995 29.134 187.126 34.7135 190.87 42.7446C190.219 43.6182 189.516 44.4464 188.764 45.229C183.895 50.3116 177.044 53.4693 169.458 53.4693" fill="#92B8E8"/>
<path d="M466.256 440.374H307.845C307.223 440.374 306.718 439.869 306.718 439.246V336.885C306.718 336.262 307.223 335.757 307.845 335.757H466.256C466.879 335.757 467.385 336.262 467.385 336.885V439.246C467.385 439.869 466.879 440.374 466.256 440.374Z" fill="#D4EAFF"/>
<path d="M460.787 387.233H313.315C312.958 387.233 312.668 386.942 312.668 386.587V345.308C312.668 344.953 312.958 344.662 313.315 344.662H460.787C461.142 344.662 461.433 344.953 461.433 345.308V386.587C461.433 386.942 461.142 387.233 460.787 387.233ZM373.41 363.581C372.181 363.581 371.18 364.578 371.18 365.806C371.18 367.035 372.181 368.036 373.41 368.036H398.709C399.937 368.036 400.934 367.035 400.934 365.806C400.934 364.578 399.937 363.581 398.709 363.581H373.41Z" fill="#B4D2F4"/>
<path d="M460.787 434.811H313.315C312.958 434.811 312.668 434.524 312.668 434.165V392.89C312.668 392.53 312.958 392.239 313.315 392.239H460.787C461.142 392.239 461.433 392.53 461.433 392.89V434.165C461.433 434.524 461.142 434.811 460.787 434.811ZM374.402 411.441C373.173 411.441 372.172 412.437 372.172 413.666C372.172 414.895 373.173 415.891 374.402 415.891H399.701C400.929 415.891 401.926 414.895 401.926 413.666C401.926 412.437 400.929 411.441 399.701 411.441H374.402Z" fill="#B4D2F4"/>
<path d="M398.709 368.036H373.41C372.181 368.036 371.18 367.035 371.18 365.806C371.18 364.578 372.181 363.581 373.41 363.581H398.709C399.937 363.581 400.934 364.578 400.934 365.806C400.934 367.035 399.937 368.036 398.709 368.036Z" fill="#9BBFEB"/>
<path d="M443.437 462.421H435.793C435.165 462.421 434.655 461.911 434.655 461.283V440.402H444.574V461.283C444.574 461.911 444.065 462.421 443.437 462.421" fill="#3E78CA"/>
<path d="M337.318 463.185H329.674C329.046 463.185 328.536 462.675 328.536 462.047V440.152H338.455V462.047C338.455 462.675 337.946 463.185 337.318 463.185" fill="#3E78CA"/>
<path d="M399.701 415.891H374.402C373.173 415.891 372.172 414.894 372.172 413.666C372.172 412.437 373.173 411.441 374.402 411.441H399.701C400.929 411.441 401.926 412.437 401.926 413.666C401.926 414.894 400.929 415.891 399.701 415.891Z" fill="#9BBFEB"/>
<path d="M407.017 289.65V316.878C407.017 323.43 403.682 329.2 398.618 332.585C395.624 334.587 392.015 335.757 388.139 335.757C377.714 335.757 369.26 327.307 369.26 316.878V289.65H407.017Z" fill="#524486"/>
<path d="M388.139 335.757C377.714 335.757 369.26 327.307 369.26 316.878V289.65H371.176C371.803 301.721 375.143 325.05 391.406 329.587C394.204 330.365 396.593 331.389 398.618 332.585C396.802 333.8 394.764 334.706 392.575 335.234C391.151 335.575 389.667 335.757 388.139 335.757" fill="#463A73"/>
<path d="M576.784 412.173C576.784 412.173 551.408 397.453 544.305 372.076C537.198 346.7 520.449 343.656 520.449 343.656C520.449 343.656 565.623 349.239 571.711 367.508C577.799 385.782 594.043 414.202 594.043 414.202L576.784 412.173" fill="#60D8B9"/>
<path d="M589.475 418.261C589.475 418.261 603.685 364.464 622.969 367.003C642.257 369.542 648.855 349.24 648.855 349.24C648.855 349.24 648.9 373.933 632.106 383.753C599.117 403.036 608.759 409.129 606.224 418.771C603.685 428.413 589.475 418.261 589.475 418.261Z" fill="#46BFA5"/>
<path d="M595.563 412.172C595.563 412.172 610.788 342.132 581.862 332.49C581.862 332.49 589.475 349.239 584.907 358.376C580.338 367.508 570.696 379.689 577.294 396.438C583.892 413.187 588.46 429.427 595.563 412.172Z" fill="#56CCB0"/>
<path d="M612.686 406.157V440.907C612.686 449.265 608.427 456.627 601.961 460.95C598.139 463.507 593.539 465 588.592 465C575.283 465 564.499 454.216 564.499 440.907V406.157H612.686" fill="#524486"/>
<path d="M588.592 465C575.283 465 564.499 454.216 564.499 440.907V406.157H566.938C567.744 421.564 572.002 451.336 592.76 457.123C596.332 458.12 599.376 459.426 601.961 460.95C598.139 463.507 593.539 465 588.592 465" fill="#463A73"/>
</svg>
